<svg width="197" height="19" viewBox="0 0 197 19" fill="none" xmlns="http://www.w3.org/2000/svg">
<path d="M75.5777 18.0396C75.4017 18.0396 75.2497 17.9756 75.1217 17.8476C74.9937 17.7196 74.9297 17.5676 74.9297 17.3916V1.88757C74.9297 1.71157 74.9937 1.55957 75.1217 1.43157C75.2497 1.30357 75.4017 1.23957 75.5777 1.23957H87.6737C87.8497 1.23957 88.0017 1.30357 88.1297 1.43157C88.2577 1.55957 88.3217 1.71157 88.3217 1.88757V5.53557C88.3217 5.71157 88.2577 5.86357 88.1297 5.99157C88.0017 6.11957 87.8497 6.18357 87.6737 6.18357H80.8097V7.95957H87.1937C87.3697 7.95957 87.5217 8.02357 87.6497 8.15157C87.7777 8.27957 87.8417 8.43157 87.8417 8.60757L87.8291 9.35157C87.8291 9.52757 87.7651 9.67957 87.6371 9.80757C87.5091 9.93557 87.3571 9.99957 87.1811 9.99957H80.7971L80.8097 17.3916C80.8097 17.5676 80.7457 17.7196 80.6177 17.8476C80.4897 17.9756 80.3377 18.0396 80.1617 18.0396H75.5777Z" fill="#668AA7"/>
<path d="M108.789 18.0396C108.613 18.0396 108.461 17.9756 108.333 17.8476C108.205 17.7196 108.141 17.5676 108.141 17.3916V1.88757C108.141 1.71157 108.205 1.55957 108.333 1.43157C108.461 1.30357 108.613 1.23957 108.789 1.23957H115.893C118.197 1.23957 119.997 1.75957 121.293 2.79957C122.589 3.83957 123.237 5.26357 123.237 7.07157C123.237 8.14357 122.989 9.07957 122.493 9.87957C122.013 10.6636 121.397 11.2956 120.645 11.7756L123.597 17.2476C123.645 17.3436 123.669 17.4316 123.669 17.5116C123.669 17.6556 123.613 17.7836 123.501 17.8956C123.405 17.9916 123.285 18.0396 123.141 18.0396H118.221C117.901 18.0396 117.661 17.9596 117.501 17.7996C117.341 17.6396 117.237 17.5036 117.189 17.3916L115.125 10.9996H114.141V17.3916C114.141 17.5676 114.077 17.7196 113.949 17.8476C113.821 17.9756 113.669 18.0396 113.493 18.0396H108.789ZM114.141 8.24757H115.893C116.261 8.24757 116.533 8.12757 116.709 7.88757C116.901 7.63157 116.997 7.34357 116.997 7.02357C116.997 6.70357 116.909 6.40757 116.733 6.13557C116.573 5.84757 116.293 5.70357 115.893 5.70357H114.141V8.24757Z" fill="#668AA7"/>
<path d="M130.562 18.0396C130.386 18.0396 130.234 17.9756 130.106 17.8476C129.978 17.7196 129.914 17.5676 129.914 17.3916V1.88757C129.914 1.71157 129.978 1.55957 130.106 1.43157C130.234 1.30357 130.386 1.23957 130.562 1.23957H137.474C138.978 1.23957 140.322 1.49557 141.506 2.00757C142.69 2.50357 143.634 3.23957 144.338 4.21557C145.058 5.19157 145.442 6.39957 145.49 7.83957C145.522 8.52757 145.538 9.13557 145.538 9.66357C145.538 10.1756 145.522 10.7596 145.49 11.4156C145.426 12.9196 145.058 14.1676 144.386 15.1596C143.714 16.1356 142.794 16.8636 141.626 17.3436C140.474 17.8076 139.13 18.0396 137.594 18.0396H130.562ZM135.914 13.3596H137.474C137.826 13.3596 138.138 13.2956 138.41 13.1676C138.698 13.0236 138.93 12.8076 139.106 12.5196C139.282 12.2316 139.378 11.8636 139.394 11.4156C139.426 10.9516 139.442 10.5356 139.442 10.1676C139.458 9.79957 139.458 9.43157 139.442 9.06357C139.442 8.67957 139.426 8.27157 139.394 7.83957C139.362 7.16757 139.146 6.67957 138.746 6.37557C138.362 6.07157 137.898 5.91957 137.354 5.91957H135.914V13.3596Z" fill="#668AA7"/>
<path d="M169.696 18.0396C169.52 18.0396 169.368 17.9756 169.24 17.8476C169.112 17.7196 169.048 17.5676 169.048 17.3916V2.23063H165.064C164.888 2.23063 164.736 2.16663 164.608 2.03863C164.48 1.91063 164.416 1.75863 164.416 1.58263V0.999563C164.416 0.823563 164.48 0.671563 164.608 0.543563C164.736 0.415563 164.888 0.351562 165.064 0.351562H179.128C179.304 0.351562 179.456 0.415563 179.584 0.543563C179.712 0.671563 179.776 0.823563 179.776 0.999563V1.58263C179.776 1.75863 179.712 1.91063 179.584 2.03863C179.456 2.16663 179.304 2.23063 179.128 2.23063H175.144V17.3916C175.144 17.5676 175.08 17.7196 174.952 17.8476C174.824 17.9756 174.672 18.0396 174.496 18.0396H169.696Z" fill="#668AA7"/>
<path d="M188.508 18.2796C186.732 18.2796 185.268 18.0396 184.116 17.5596C182.964 17.0796 182.1 16.4476 181.524 15.6636C180.948 14.8796 180.644 14.0476 180.612 13.1676C180.612 13.0236 180.66 12.9036 180.756 12.8076C180.868 12.6956 180.996 12.6396 181.14 12.6396H185.7C185.956 12.6396 186.148 12.6796 186.276 12.7596C186.42 12.8236 186.572 12.9196 186.732 13.0476C186.892 13.1596 187.052 13.2636 187.212 13.3596C187.388 13.4396 187.58 13.5036 187.788 13.5516C188.012 13.5836 188.252 13.5996 188.508 13.5996C189.052 13.5996 189.484 13.5436 189.804 13.4316C190.14 13.3036 190.308 13.1356 190.308 12.9276C190.308 12.7356 190.212 12.5756 190.02 12.4476C189.844 12.3196 189.532 12.2076 189.084 12.1116C188.636 11.9996 188.012 11.8956 187.212 11.7996C185.948 11.6236 184.852 11.3276 183.924 10.9116C182.996 10.4956 182.276 9.92757 181.764 9.20757C181.268 8.47157 181.02 7.57557 181.02 6.51957C181.02 5.43157 181.324 4.47157 181.932 3.63957C182.556 2.80757 183.412 2.15957 184.5 1.69557C185.604 1.23157 186.884 0.999568 188.34 0.999568C189.54 0.999568 190.604 1.15957 191.532 1.47957C192.46 1.78357 193.244 2.19157 193.884 2.70357C194.524 3.19957 195.012 3.73557 195.348 4.31157C195.684 4.88757 195.86 5.43957 195.876 5.96757C195.876 6.11157 195.82 6.23957 195.708 6.35157C195.612 6.44757 195.5 6.49557 195.372 6.49557H190.572C190.348 6.49557 190.164 6.46357 190.02 6.39957C189.892 6.33557 189.756 6.23957 189.612 6.11157C189.532 6.03157 189.38 5.94357 189.156 5.84757C188.948 5.73557 188.676 5.67957 188.34 5.67957C187.94 5.67957 187.644 5.74357 187.452 5.87157C187.276 5.98357 187.188 6.14357 187.188 6.35157C187.188 6.49557 187.26 6.63157 187.404 6.75957C187.548 6.88757 187.812 6.99957 188.196 7.09557C188.58 7.19157 189.132 7.28757 189.852 7.38357C191.452 7.57557 192.732 7.88757 193.692 8.31957C194.668 8.73557 195.372 9.29557 195.804 9.99957C196.252 10.7036 196.476 11.5756 196.476 12.6156C196.476 13.7836 196.124 14.7916 195.42 15.6396C194.732 16.4876 193.788 17.1436 192.588 17.6076C191.388 18.0556 190.028 18.2796 188.508 18.2796Z" fill="#668AA7"/>
<path d="M52.5855 18.0396C52.4095 18.0396 52.2575 17.9836 52.1295 17.8716C52.0015 17.7436 51.9375 17.5836 51.9375 17.3916V1.88757C51.9375 1.71157 52.0015 1.55957 52.1295 1.43157C52.2575 1.30357 52.4095 1.23957 52.5855 1.23957H57.2895C57.4655 1.23957 57.6175 1.30357 57.7455 1.43157C57.8735 1.55957 57.9375 1.71157 57.9375 1.88757V8.99957H61.8255V1.88757C61.8255 1.71157 61.8895 1.55957 62.0175 1.43157C62.1455 1.30357 62.2975 1.23957 62.4735 1.23957H67.1775C67.3535 1.23957 67.5055 1.30357 67.6335 1.43157C67.7615 1.55957 67.8255 1.71157 67.8255 1.88757V17.3916C67.8255 17.5676 67.7615 17.7196 67.6335 17.8476C67.5055 17.9756 67.3535 18.0396 67.1775 18.0396H62.4735C62.2975 18.0396 62.1455 17.9756 62.0175 17.8476C61.8895 17.7196 61.8255 17.5676 61.8255 17.3916V12.2076H57.9375V17.3916C57.9375 17.5676 57.8735 17.7196 57.7455 17.8476C57.6175 17.9756 57.4655 18.0396 57.2895 18.0396H52.5855Z" fill="#668AA7"/>
<path d="M42.2111 18.2796C40.4351 18.2796 38.9711 18.0396 37.8191 17.5596C36.6671 17.0796 35.8031 16.4476 35.2271 15.6636C34.6511 14.8796 34.3471 14.0476 34.3151 13.1676C34.3151 13.0236 34.3631 12.9036 34.4591 12.8076C34.5711 12.6956 34.6991 12.6396 34.8431 12.6396H39.4031C39.6591 12.6396 39.8511 12.6796 39.9791 12.7596C40.1231 12.8236 40.2751 12.9196 40.4351 13.0476C40.5951 13.1596 40.7551 13.2636 40.9151 13.3596C41.0911 13.4396 41.2831 13.5036 41.4911 13.5516C41.7151 13.5836 41.9551 13.5996 42.2111 13.5996C42.7551 13.5996 43.1871 13.5436 43.5071 13.4316C43.8431 13.3036 44.0111 13.1356 44.0111 12.9276C44.0111 12.7356 43.9151 12.5756 43.7231 12.4476C43.5471 12.3196 43.2351 12.2076 42.7871 12.1116C42.3391 11.9996 41.7151 11.8956 40.9151 11.7996C39.6511 11.6236 38.5551 11.3276 37.6271 10.9116C36.6991 10.4956 35.9791 9.92757 35.4671 9.20757C34.9711 8.47157 34.7231 7.57557 34.7231 6.51957C34.7231 5.43157 35.0271 4.47157 35.6351 3.63957C36.2591 2.80757 37.1151 2.15957 38.2031 1.69557C39.3071 1.23157 40.5871 0.999568 42.0431 0.999568C43.2431 0.999568 44.3071 1.15957 45.2351 1.47957C46.1631 1.78357 46.9471 2.19157 47.5871 2.70357C48.2271 3.19957 48.7151 3.73557 49.0511 4.31157C49.3871 4.88757 49.5631 5.43957 49.5791 5.96757C49.5791 6.11157 49.5231 6.23957 49.4111 6.35157C49.3151 6.44757 49.2031 6.49557 49.0751 6.49557H44.2751C44.0511 6.49557 43.8671 6.46357 43.7231 6.39957C43.5951 6.33557 43.4591 6.23957 43.3151 6.11157C43.2351 6.03157 43.0831 5.94357 42.8591 5.84757C42.6511 5.73557 42.3791 5.67957 42.0431 5.67957C41.6431 5.67957 41.3471 5.74357 41.1551 5.87157C40.9791 5.98357 40.8911 6.14357 40.8911 6.35157C40.8911 6.49557 40.9631 6.63157 41.1071 6.75957C41.2511 6.88757 41.5151 6.99957 41.8991 7.09557C42.2831 7.19157 42.8351 7.28757 43.5551 7.38357C45.1551 7.57557 46.4351 7.88757 47.3951 8.31957C48.3711 8.73557 49.0751 9.29557 49.5071 9.99957C49.9551 10.7036 50.1791 11.5756 50.1791 12.6156C50.1791 13.7836 49.8271 14.7916 49.1231 15.6396C48.4351 16.4876 47.4911 17.1436 46.2911 17.6076C45.0911 18.0556 43.7311 18.2796 42.2111 18.2796Z" fill="#668AA7"/>
<path fill-rule="evenodd" clip-rule="evenodd" d="M16.5518 18.0396C16.4078 18.0396 16.2797 17.9916 16.1677 17.8956C16.0717 17.7836 16.0238 17.6556 16.0238 17.5116C16.0238 17.4476 16.0317 17.3916 16.0478 17.3436L21.3997 2.03157C21.4478 1.85557 21.5597 1.67957 21.7358 1.50357C21.9118 1.32757 22.1598 1.23957 22.4798 1.23957H27.6878C28.0078 1.23957 28.2558 1.32757 28.4318 1.50357C28.6077 1.67957 28.7197 1.85557 28.7677 2.03157L34.1198 17.3436C34.1357 17.3916 34.1438 17.4476 34.1438 17.5116C34.1438 17.6556 34.0877 17.7836 33.9757 17.8956C33.8797 17.9916 33.7598 18.0396 33.6158 18.0396H29.1758C28.8717 18.0396 28.6478 17.9756 28.5038 17.8476C28.3758 17.7036 28.2878 17.5676 28.2397 17.4396L27.6637 15.8556H22.5037L21.9277 17.4396C21.8797 17.5676 21.7917 17.7036 21.6637 17.8476C21.5357 17.9756 21.3118 18.0396 20.9918 18.0396H16.5518ZM27.2971 12.9996H22.7971L25.0718 6.71157L27.2971 12.9996Z" fill="#668AA7"/>
<path fill-rule="evenodd" clip-rule="evenodd" d="M97.9121 18.2796C96.3441 18.2796 94.9681 18.0396 93.7841 17.5596C92.6161 17.0796 91.6881 16.3596 91.0001 15.3996C90.3281 14.4236 89.9601 13.2236 89.8961 11.7996C89.8908 11.5811 89.8864 11.45 89.8828 11.345C89.8757 11.1347 89.8721 11.0295 89.8721 10.5386C89.8721 10.086 89.8752 10.0104 89.8812 9.8593C89.885 9.76469 89.89 9.64046 89.8961 9.37557C89.9601 7.96757 90.3281 6.77557 91.0001 5.79957C91.6721 4.82357 92.6001 4.07957 93.7841 3.56757C94.9681 3.05557 96.3441 2.79957 97.9121 2.79957C99.4801 2.79957 100.856 3.05557 102.04 3.56757C103.224 4.07957 104.152 4.82357 104.824 5.79957C105.512 6.77557 105.88 7.96757 105.928 9.37557C105.94 9.64046 105.95 9.76469 105.958 9.8593C105.97 10.0104 105.976 10.086 105.976 10.5386C105.976 11.0295 105.969 11.1347 105.955 11.345C105.948 11.45 105.939 11.5811 105.928 11.7996C105.864 13.2236 105.488 14.4236 104.8 15.3996C104.128 16.3596 103.2 17.0796 102.016 17.5596C100.848 18.0396 99.4801 18.2796 97.9121 18.2796ZM99.1841 13.1436C98.8641 13.4476 98.4401 13.5996 97.9121 13.5996C97.3841 13.5996 96.9601 13.4476 96.6401 13.1436C96.3361 12.8236 96.1681 12.3276 96.1361 11.6556L96.1354 11.6249L96.1361 11.5943C96.1521 11.1463 96.2321 10.7783 96.3761 10.4903C96.5361 10.2023 96.7441 9.99425 97.0001 9.86625C97.2721 9.72225 97.5761 9.65025 97.9121 9.65025C98.2641 9.65025 98.5681 9.72225 98.8241 9.86625C99.0801 9.99425 99.2801 10.2023 99.4241 10.4903C99.5923 10.8266 99.6881 11.2691 99.6881 11.6556C99.6721 12.3276 99.5041 12.8236 99.1841 13.1436Z" fill="#FE3D6A"/>
<path fill-rule="evenodd" clip-rule="evenodd" d="M155.233 18.2796C153.665 18.2796 152.289 18.0396 151.105 17.5596C149.937 17.0796 149.009 16.3596 148.321 15.3996C147.649 14.4236 147.281 13.2236 147.217 11.7996C147.212 11.5811 147.207 11.45 147.204 11.345C147.197 11.1347 147.193 11.0295 147.193 10.5386C147.193 10.086 147.196 10.0104 147.202 9.8593C147.206 9.76469 147.211 9.64046 147.217 9.37557C147.281 7.96757 147.649 6.77557 148.321 5.79957C148.993 4.82357 149.921 4.07957 151.105 3.56757C152.289 3.05557 153.665 2.79957 155.233 2.79957C156.801 2.79957 158.177 3.05557 159.361 3.56757C160.545 4.07957 161.473 4.82357 162.145 5.79957C162.833 6.77557 163.201 7.96757 163.249 9.37557C163.258 9.57424 163.266 9.69379 163.273 9.78106L163.279 9.8593C163.291 10.0104 163.297 10.086 163.297 10.5386C163.297 11.0295 163.29 11.1347 163.276 11.345C163.269 11.45 163.26 11.5811 163.249 11.7996C163.185 13.2236 162.809 14.4236 162.121 15.3996C161.449 16.3596 160.521 17.0796 159.337 17.5596C158.169 18.0396 156.801 18.2796 155.233 18.2796ZM156.505 13.1436C156.185 13.4476 155.761 13.5996 155.233 13.5996C154.705 13.5996 154.281 13.4476 153.961 13.1436C153.657 12.8236 153.489 12.3276 153.457 11.6556L153.456 11.6249L153.457 11.5943C153.473 11.1463 153.553 10.7783 153.697 10.4903C153.857 10.2023 154.065 9.99425 154.321 9.86625C154.593 9.72225 154.897 9.65025 155.233 9.65025C155.585 9.65025 155.889 9.72225 156.145 9.86625C156.401 9.99425 156.601 10.2023 156.745 10.4903C156.913 10.8266 157.009 11.2691 157.009 11.6556C156.993 12.3276 156.825 12.8236 156.505 13.1436Z" fill="#38D279"/>
<path fill-rule="evenodd" clip-rule="evenodd" d="M0.648 18.0396C0.472 18.0396 0.32 17.9756 0.192 17.8476C0.0640001 17.7196 0 17.5676 0 17.3916V1.88757C0 1.71157 0.0640001 1.55957 0.192 1.43157C0.32 1.30357 0.472 1.23957 0.648 1.23957H7.56C9.064 1.23957 10.408 1.49557 11.592 2.00757C12.776 2.50357 13.72 3.23957 14.424 4.21557C15.144 5.19157 15.528 6.39957 15.576 7.83957C15.608 8.52757 15.624 9.13557 15.624 9.66357C15.624 10.1756 15.608 10.7596 15.576 11.4156C15.512 12.9196 15.144 14.1676 14.472 15.1596C13.8 16.1356 12.88 16.8636 11.712 17.3436C10.56 17.8076 9.216 18.0396 7.68 18.0396H0.648ZM7.56 13.3596H6V5.91957H7.44C7.984 5.91957 8.448 6.07157 8.832 6.37557C9.232 6.67957 9.448 7.16757 9.48 7.83957C9.512 8.27157 9.528 8.67957 9.528 9.06357C9.544 9.43157 9.544 9.79957 9.528 10.1676C9.528 10.5356 9.512 10.9516 9.48 11.4156C9.464 11.8636 9.368 12.2316 9.192 12.5196C9.016 12.8076 8.784 13.0236 8.496 13.1676C8.224 13.2956 7.912 13.3596 7.56 13.3596Z" fill="#668AA7"/>
</svg>
