<svg width="38" height="38" viewBox="0 0 38 38" fill="none" xmlns="http://www.w3.org/2000/svg">
<rect width="38" height="38" rx="4" fill="#38D279"/>
<path d="M14.9742 20.0147C15.5431 19.6924 15.738 18.9785 15.4096 18.4202C15.0811 17.8619 14.3536 17.6706 13.7847 17.993C13.2157 18.3153 13.0208 19.0292 13.3493 19.5875C13.6777 20.1457 14.4052 20.337 14.9742 20.0147ZM16.0718 20.6454C15.9256 20.7903 15.7576 20.9187 15.5689 21.0256C14.4311 21.6702 12.9761 21.2876 12.3191 20.1711C11.6622 19.0545 12.052 17.6268 13.1899 16.9821C14.1499 16.4382 15.3357 16.6255 16.0774 17.3679L20.3278 14.9599C20.0435 13.9584 20.4711 12.857 21.4311 12.3132C22.5689 11.6685 24.0239 12.0511 24.6809 13.1676C25.3378 14.2842 24.948 15.7119 23.8101 16.3566C22.8501 16.9005 21.6643 16.7132 20.9226 15.9708L16.6722 18.3788C16.7908 18.7965 16.7855 19.2315 16.6695 19.6362L20.8934 22.0292C21.6352 21.2868 22.8209 21.0995 23.7809 21.6434C24.9188 22.2881 25.3087 23.7158 24.6517 24.8324C23.9948 25.9489 22.5398 26.3315 21.4019 25.6868C20.4419 25.143 20.0143 24.0416 20.2987 23.0401L16.0718 20.6454ZM23.2153 15.3457C23.7843 15.0234 23.9792 14.3095 23.6507 13.7513C23.3223 13.193 22.5948 13.0017 22.0258 13.324C21.4569 13.6463 21.262 14.3602 21.5904 14.9185C21.9189 15.4768 22.6464 15.6681 23.2153 15.3457ZM21.9967 24.676C22.5656 24.9983 23.2931 24.807 23.6216 24.2487C23.95 23.6905 23.7551 22.9766 23.1862 22.6543C22.6172 22.3319 21.8897 22.5232 21.5613 23.0815C21.2328 23.6398 21.4277 24.3537 21.9967 24.676Z" fill="white"/>
</svg>
