<svg width="711" height="889" viewBox="0 0 711 889" fill="none" xmlns="http://www.w3.org/2000/svg">
<g opacity="0.1" clip-path="url(#clip0_283_9110)">
<circle cx="373" cy="465" r="8" fill="#A3B9CA"/>
<circle cx="373" cy="443" r="8" fill="#A3B9CA"/>
<circle cx="373" cy="487" r="8" fill="#A3B9CA"/>
<circle cx="373" cy="509" r="8" fill="#A3B9CA"/>
<circle cx="373" cy="531" r="8" fill="#A3B9CA"/>
<circle cx="373" cy="553" r="8" fill="#A3B9CA"/>
<circle cx="373" cy="575" r="8" fill="#A3B9CA"/>
<circle cx="373" cy="597" r="8" fill="#A3B9CA"/>
<circle cx="373" cy="619" r="8" fill="#A3B9CA"/>
<circle cx="373" cy="641" r="8" fill="#A3B9CA"/>
<circle cx="373" cy="663" r="8" fill="#A3B9CA"/>
<circle cx="373" cy="685" r="8" fill="#A3B9CA"/>
<circle cx="373" cy="707" r="8" fill="#A3B9CA"/>
<circle cx="373" cy="729" r="8" fill="#A3B9CA"/>
<circle cx="373" cy="751" r="8" fill="#A3B9CA"/>
<circle cx="373" cy="773" r="8" fill="#A3B9CA"/>
<circle cx="395" cy="443" r="8" fill="#A3B9CA"/>
<circle cx="395" cy="465" r="8" fill="#A3B9CA"/>
<circle cx="395" cy="487" r="8" fill="#A3B9CA"/>
<circle cx="395" cy="509" r="8" fill="#A3B9CA"/>
<circle cx="395" cy="531" r="8" fill="#A3B9CA"/>
<circle cx="395" cy="553" r="8" fill="#A3B9CA"/>
<circle cx="395" cy="575" r="8" fill="#A3B9CA"/>
<circle cx="395" cy="597" r="8" fill="#A3B9CA"/>
<circle cx="395" cy="619" r="8" fill="#A3B9CA"/>
<circle cx="395" cy="641" r="8" fill="#A3B9CA"/>
<circle cx="395" cy="663" r="8" fill="#A3B9CA"/>
<circle cx="395" cy="685" r="8" fill="#A3B9CA"/>
<circle cx="395" cy="707" r="8" fill="#A3B9CA"/>
<circle cx="395" cy="729" r="8" fill="#A3B9CA"/>
<circle cx="395" cy="751" r="8" fill="#A3B9CA"/>
<circle cx="395" cy="773" r="8" fill="#A3B9CA"/>
<circle cx="417" cy="443" r="8" fill="#A3B9CA"/>
<circle cx="417" cy="465" r="8" fill="#A3B9CA"/>
<circle cx="417" cy="487" r="8" fill="#A3B9CA"/>
<circle cx="417" cy="509" r="8" fill="#A3B9CA"/>
<circle cx="417" cy="531" r="8" fill="#A3B9CA"/>
<circle cx="417" cy="553" r="8" fill="#A3B9CA"/>
<circle cx="417" cy="575" r="8" fill="#A3B9CA"/>
<circle cx="417" cy="597" r="8" fill="#A3B9CA"/>
<circle cx="417" cy="619" r="8" fill="#A3B9CA"/>
<circle cx="417" cy="641" r="8" fill="#A3B9CA"/>
<circle cx="417" cy="663" r="8" fill="#A3B9CA"/>
<circle cx="417" cy="685" r="8" fill="#A3B9CA"/>
<circle cx="417" cy="707" r="8" fill="#A3B9CA"/>
<circle cx="417" cy="729" r="8" fill="#A3B9CA"/>
<circle cx="417" cy="751" r="8" fill="#A3B9CA"/>
<circle cx="417" cy="773" r="8" fill="#A3B9CA"/>
<circle cx="439" cy="443" r="8" fill="#A3B9CA"/>
<circle cx="439" cy="465" r="8" fill="#A3B9CA"/>
<circle cx="439" cy="487" r="8" fill="#A3B9CA"/>
<circle cx="439" cy="509" r="8" fill="#A3B9CA"/>
<circle cx="439" cy="531" r="8" fill="#A3B9CA"/>
<circle cx="439" cy="553" r="8" fill="#A3B9CA"/>
<circle cx="439" cy="575" r="8" fill="#A3B9CA"/>
<circle cx="439" cy="597" r="8" fill="#A3B9CA"/>
<circle cx="439" cy="619" r="8" fill="#A3B9CA"/>
<circle cx="439" cy="641" r="8" fill="#A3B9CA"/>
<circle cx="439" cy="663" r="8" fill="#A3B9CA"/>
<circle cx="439" cy="685" r="8" fill="#A3B9CA"/>
<circle cx="439" cy="707" r="8" fill="#A3B9CA"/>
<circle cx="439" cy="729" r="8" fill="#A3B9CA"/>
<circle cx="439" cy="751" r="8" fill="#A3B9CA"/>
<circle cx="439" cy="773" r="8" fill="#A3B9CA"/>
<circle cx="461" cy="443" r="8" fill="#A3B9CA"/>
<circle cx="461" cy="465" r="8" fill="#A3B9CA"/>
<circle cx="461" cy="487" r="8" fill="#A3B9CA"/>
<circle cx="461" cy="509" r="8" fill="#A3B9CA"/>
<circle cx="461" cy="531" r="8" fill="#A3B9CA"/>
<circle cx="461" cy="553" r="8" fill="#A3B9CA"/>
<circle cx="461" cy="575" r="8" fill="#A3B9CA"/>
<circle cx="461" cy="597" r="8" fill="#A3B9CA"/>
<circle cx="461" cy="619" r="8" fill="#A3B9CA"/>
<circle cx="461" cy="641" r="8" fill="#A3B9CA"/>
<circle cx="461" cy="663" r="8" fill="#A3B9CA"/>
<circle cx="461" cy="685" r="8" fill="#A3B9CA"/>
<circle cx="461" cy="707" r="8" fill="#A3B9CA"/>
<circle cx="461" cy="729" r="8" fill="#A3B9CA"/>
<circle cx="461" cy="751" r="8" fill="#A3B9CA"/>
<circle cx="461" cy="773" r="8" fill="#A3B9CA"/>
<circle cx="483" cy="443" r="8" fill="#A3B9CA"/>
<circle cx="483" cy="465" r="8" fill="#A3B9CA"/>
<circle cx="483" cy="487" r="8" fill="#A3B9CA"/>
<circle cx="483" cy="509" r="8" fill="#A3B9CA"/>
<circle cx="483" cy="531" r="8" fill="#A3B9CA"/>
<circle cx="483" cy="553" r="8" fill="#A3B9CA"/>
<circle cx="483" cy="575" r="8" fill="#A3B9CA"/>
<circle cx="483" cy="597" r="8" fill="#A3B9CA"/>
<circle cx="483" cy="619" r="8" fill="#A3B9CA"/>
<circle cx="483" cy="641" r="8" fill="#A3B9CA"/>
<circle cx="483" cy="663" r="8" fill="#A3B9CA"/>
<circle cx="483" cy="685" r="8" fill="#A3B9CA"/>
<circle cx="483" cy="707" r="8" fill="#A3B9CA"/>
<circle cx="483" cy="729" r="8" fill="#A3B9CA"/>
<circle cx="483" cy="751" r="8" fill="#A3B9CA"/>
<circle cx="483" cy="773" r="8" fill="#A3B9CA"/>
<circle cx="505" cy="443" r="8" fill="#A3B9CA"/>
<circle cx="505" cy="465" r="8" fill="#A3B9CA"/>
<circle cx="505" cy="487" r="8" fill="#A3B9CA"/>
<circle cx="505" cy="509" r="8" fill="#A3B9CA"/>
<circle cx="505" cy="531" r="8" fill="#A3B9CA"/>
<circle cx="505" cy="553" r="8" fill="#A3B9CA"/>
<circle cx="505" cy="575" r="8" fill="#A3B9CA"/>
<circle cx="505" cy="597" r="8" fill="#A3B9CA"/>
<circle cx="505" cy="619" r="8" fill="#A3B9CA"/>
<circle cx="505" cy="641" r="8" fill="#A3B9CA"/>
<circle cx="505" cy="663" r="8" fill="#A3B9CA"/>
<circle cx="505" cy="685" r="8" fill="#A3B9CA"/>
<circle cx="505" cy="707" r="8" fill="#A3B9CA"/>
<circle cx="505" cy="729" r="8" fill="#A3B9CA"/>
<circle cx="505" cy="751" r="8" fill="#A3B9CA"/>
<circle cx="505" cy="773" r="8" fill="#A3B9CA"/>
<circle cx="527" cy="443" r="8" fill="#A3B9CA"/>
<circle cx="527" cy="465" r="8" fill="#A3B9CA"/>
<circle cx="527" cy="487" r="8" fill="#A3B9CA"/>
<circle cx="527" cy="509" r="8" fill="#A3B9CA"/>
<circle cx="527" cy="531" r="8" fill="#A3B9CA"/>
<circle cx="527" cy="553" r="8" fill="#A3B9CA"/>
<circle cx="527" cy="575" r="8" fill="#A3B9CA"/>
<circle cx="527" cy="597" r="8" fill="#A3B9CA"/>
<circle cx="527" cy="619" r="8" fill="#A3B9CA"/>
<circle cx="527" cy="641" r="8" fill="#A3B9CA"/>
<circle cx="527" cy="663" r="8" fill="#A3B9CA"/>
<circle cx="527" cy="685" r="8" fill="#A3B9CA"/>
<circle cx="527" cy="707" r="8" fill="#A3B9CA"/>
<circle cx="527" cy="729" r="8" fill="#A3B9CA"/>
<circle cx="527" cy="751" r="8" fill="#A3B9CA"/>
<circle cx="527" cy="773" r="8" fill="#A3B9CA"/>
<circle cx="549" cy="443" r="8" fill="#A3B9CA"/>
<circle cx="549" cy="465" r="8" fill="#A3B9CA"/>
<circle cx="549" cy="487" r="8" fill="#A3B9CA"/>
<circle cx="549" cy="509" r="8" fill="#A3B9CA"/>
<circle cx="549" cy="531" r="8" fill="#A3B9CA"/>
<circle cx="549" cy="553" r="8" fill="#A3B9CA"/>
<circle cx="549" cy="575" r="8" fill="#A3B9CA"/>
<circle cx="549" cy="597" r="8" fill="#A3B9CA"/>
<circle cx="549" cy="619" r="8" fill="#A3B9CA"/>
<circle cx="549" cy="641" r="8" fill="#A3B9CA"/>
<circle cx="549" cy="663" r="8" fill="#A3B9CA"/>
<circle cx="549" cy="685" r="8" fill="#A3B9CA"/>
<circle cx="549" cy="707" r="8" fill="#A3B9CA"/>
<circle cx="549" cy="729" r="8" fill="#A3B9CA"/>
<circle cx="549" cy="751" r="8" fill="#A3B9CA"/>
<circle cx="549" cy="773" r="8" fill="#A3B9CA"/>
<circle cx="571" cy="443" r="8" fill="#A3B9CA"/>
<circle cx="571" cy="465" r="8" fill="#A3B9CA"/>
<circle cx="571" cy="487" r="8" fill="#A3B9CA"/>
<circle cx="571" cy="509" r="8" fill="#A3B9CA"/>
<circle cx="571" cy="531" r="8" fill="#A3B9CA"/>
<circle cx="571" cy="553" r="8" fill="#A3B9CA"/>
<circle cx="571" cy="575" r="8" fill="#A3B9CA"/>
<circle cx="571" cy="597" r="8" fill="#A3B9CA"/>
<circle cx="571" cy="619" r="8" fill="#A3B9CA"/>
<circle cx="571" cy="641" r="8" fill="#A3B9CA"/>
<circle cx="571" cy="663" r="8" fill="#A3B9CA"/>
<circle cx="571" cy="685" r="8" fill="#A3B9CA"/>
<circle cx="571" cy="707" r="8" fill="#A3B9CA"/>
<circle cx="571" cy="729" r="8" fill="#A3B9CA"/>
<circle cx="571" cy="751" r="8" fill="#A3B9CA"/>
<circle cx="571" cy="773" r="8" fill="#A3B9CA"/>
<circle cx="593" cy="443" r="8" fill="#A3B9CA"/>
<circle cx="593" cy="465" r="8" fill="#A3B9CA"/>
<circle cx="593" cy="487" r="8" fill="#A3B9CA"/>
<circle cx="593" cy="509" r="8" fill="#A3B9CA"/>
<circle cx="593" cy="531" r="8" fill="#A3B9CA"/>
<circle cx="593" cy="553" r="8" fill="#A3B9CA"/>
<circle cx="593" cy="575" r="8" fill="#A3B9CA"/>
<circle cx="593" cy="597" r="8" fill="#A3B9CA"/>
<circle cx="593" cy="619" r="8" fill="#A3B9CA"/>
<circle cx="593" cy="641" r="8" fill="#A3B9CA"/>
<circle cx="593" cy="663" r="8" fill="#A3B9CA"/>
<circle cx="593" cy="685" r="8" fill="#A3B9CA"/>
<circle cx="593" cy="707" r="8" fill="#A3B9CA"/>
<circle cx="593" cy="729" r="8" fill="#A3B9CA"/>
<circle cx="593" cy="751" r="8" fill="#A3B9CA"/>
<circle cx="593" cy="773" r="8" fill="#A3B9CA"/>
<circle cx="615" cy="443" r="8" fill="#A3B9CA"/>
<circle cx="615" cy="465" r="8" fill="#A3B9CA"/>
<circle cx="615" cy="487" r="8" fill="#A3B9CA"/>
<circle cx="615" cy="509" r="8" fill="#A3B9CA"/>
<circle cx="615" cy="531" r="8" fill="#A3B9CA"/>
<circle cx="615" cy="553" r="8" fill="#A3B9CA"/>
<circle cx="615" cy="575" r="8" fill="#A3B9CA"/>
<circle cx="615" cy="597" r="8" fill="#A3B9CA"/>
<circle cx="615" cy="619" r="8" fill="#A3B9CA"/>
<circle cx="615" cy="641" r="8" fill="#A3B9CA"/>
<circle cx="615" cy="663" r="8" fill="#A3B9CA"/>
<circle cx="615" cy="685" r="8" fill="#A3B9CA"/>
<circle cx="615" cy="707" r="8" fill="#A3B9CA"/>
<circle cx="615" cy="729" r="8" fill="#A3B9CA"/>
<circle cx="615" cy="751" r="8" fill="#A3B9CA"/>
<circle cx="615" cy="773" r="8" fill="#A3B9CA"/>
<circle cx="637" cy="443" r="8" fill="#A3B9CA"/>
<circle cx="637" cy="465" r="8" fill="#A3B9CA"/>
<circle cx="637" cy="487" r="8" fill="#A3B9CA"/>
<circle cx="637" cy="509" r="8" fill="#A3B9CA"/>
<circle cx="637" cy="531" r="8" fill="#A3B9CA"/>
<circle cx="637" cy="553" r="8" fill="#A3B9CA"/>
<circle cx="637" cy="575" r="8" fill="#A3B9CA"/>
<circle cx="637" cy="597" r="8" fill="#A3B9CA"/>
<circle cx="637" cy="619" r="8" fill="#A3B9CA"/>
<circle cx="637" cy="641" r="8" fill="#A3B9CA"/>
<circle cx="637" cy="663" r="8" fill="#A3B9CA"/>
<circle cx="637" cy="685" r="8" fill="#A3B9CA"/>
<circle cx="637" cy="707" r="8" fill="#A3B9CA"/>
<circle cx="637" cy="729" r="8" fill="#A3B9CA"/>
<circle cx="637" cy="751" r="8" fill="#A3B9CA"/>
<circle cx="637" cy="773" r="8" fill="#A3B9CA"/>
<circle cx="659" cy="443" r="8" fill="#A3B9CA"/>
<circle cx="659" cy="465" r="8" fill="#A3B9CA"/>
<circle cx="659" cy="487" r="8" fill="#A3B9CA"/>
<circle cx="659" cy="509" r="8" fill="#A3B9CA"/>
<circle cx="659" cy="531" r="8" fill="#A3B9CA"/>
<circle cx="659" cy="553" r="8" fill="#A3B9CA"/>
<circle cx="659" cy="575" r="8" fill="#A3B9CA"/>
<circle cx="659" cy="597" r="8" fill="#A3B9CA"/>
<circle cx="659" cy="619" r="8" fill="#A3B9CA"/>
<circle cx="659" cy="641" r="8" fill="#A3B9CA"/>
<circle cx="659" cy="663" r="8" fill="#A3B9CA"/>
<circle cx="659" cy="685" r="8" fill="#A3B9CA"/>
<circle cx="659" cy="707" r="8" fill="#A3B9CA"/>
<circle cx="659" cy="729" r="8" fill="#A3B9CA"/>
<circle cx="659" cy="751" r="8" fill="#A3B9CA"/>
<circle cx="659" cy="773" r="8" fill="#A3B9CA"/>
<circle cx="681" cy="443" r="8" fill="#A3B9CA"/>
<circle cx="681" cy="465" r="8" fill="#A3B9CA"/>
<circle cx="681" cy="487" r="8" fill="#A3B9CA"/>
<circle cx="681" cy="509" r="8" fill="#A3B9CA"/>
<circle cx="681" cy="531" r="8" fill="#A3B9CA"/>
<circle cx="681" cy="553" r="8" fill="#A3B9CA"/>
<circle cx="681" cy="575" r="8" fill="#A3B9CA"/>
<circle cx="681" cy="597" r="8" fill="#A3B9CA"/>
<circle cx="681" cy="619" r="8" fill="#A3B9CA"/>
<circle cx="681" cy="641" r="8" fill="#A3B9CA"/>
<circle cx="681" cy="663" r="8" fill="#A3B9CA"/>
<circle cx="681" cy="685" r="8" fill="#A3B9CA"/>
<circle cx="681" cy="707" r="8" fill="#A3B9CA"/>
<circle cx="681" cy="729" r="8" fill="#A3B9CA"/>
<circle cx="681" cy="751" r="8" fill="#A3B9CA"/>
<circle cx="681" cy="773" r="8" fill="#A3B9CA"/>
<circle cx="703" cy="443" r="8" fill="#A3B9CA"/>
<circle cx="703" cy="465" r="8" fill="#A3B9CA"/>
<circle cx="703" cy="487" r="8" fill="#A3B9CA"/>
<circle cx="703" cy="509" r="8" fill="#A3B9CA"/>
<circle cx="703" cy="531" r="8" fill="#A3B9CA"/>
<circle cx="703" cy="553" r="8" fill="#A3B9CA"/>
<circle cx="703" cy="575" r="8" fill="#A3B9CA"/>
<circle cx="703" cy="597" r="8" fill="#A3B9CA"/>
<circle cx="703" cy="619" r="8" fill="#A3B9CA"/>
<circle cx="703" cy="641" r="8" fill="#A3B9CA"/>
<circle cx="703" cy="663" r="8" fill="#A3B9CA"/>
<circle cx="703" cy="685" r="8" fill="#A3B9CA"/>
<circle cx="703" cy="707" r="8" fill="#A3B9CA"/>
<circle cx="703" cy="729" r="8" fill="#A3B9CA"/>
<circle cx="703" cy="751" r="8" fill="#A3B9CA"/>
<circle cx="703" cy="773" r="8" fill="#A3B9CA"/>
<circle cx="373" cy="793" r="8" fill="#A3B9CA"/>
<circle cx="373" cy="815" r="8" fill="#A3B9CA"/>
<circle cx="373" cy="837" r="8" fill="#A3B9CA"/>
<circle cx="373" cy="859" r="8" fill="#A3B9CA"/>
<circle cx="373" cy="881" r="8" fill="#A3B9CA"/>
<circle cx="395" cy="793" r="8" fill="#A3B9CA"/>
<circle cx="395" cy="815" r="8" fill="#A3B9CA"/>
<circle cx="395" cy="837" r="8" fill="#A3B9CA"/>
<circle cx="395" cy="859" r="8" fill="#A3B9CA"/>
<circle cx="395" cy="881" r="8" fill="#A3B9CA"/>
<circle cx="417" cy="793" r="8" fill="#A3B9CA"/>
<circle cx="417" cy="815" r="8" fill="#A3B9CA"/>
<circle cx="417" cy="837" r="8" fill="#A3B9CA"/>
<circle cx="417" cy="859" r="8" fill="#A3B9CA"/>
<circle cx="417" cy="881" r="8" fill="#A3B9CA"/>
<circle cx="439" cy="793" r="8" fill="#A3B9CA"/>
<circle cx="439" cy="815" r="8" fill="#A3B9CA"/>
<circle cx="439" cy="837" r="8" fill="#A3B9CA"/>
<circle cx="439" cy="859" r="8" fill="#A3B9CA"/>
<circle cx="439" cy="881" r="8" fill="#A3B9CA"/>
<circle cx="461" cy="793" r="8" fill="#A3B9CA"/>
<circle cx="461" cy="815" r="8" fill="#A3B9CA"/>
<circle cx="461" cy="837" r="8" fill="#A3B9CA"/>
<circle cx="461" cy="859" r="8" fill="#A3B9CA"/>
<circle cx="461" cy="881" r="8" fill="#A3B9CA"/>
<circle cx="483" cy="793" r="8" fill="#A3B9CA"/>
<circle cx="483" cy="815" r="8" fill="#A3B9CA"/>
<circle cx="483" cy="837" r="8" fill="#A3B9CA"/>
<circle cx="483" cy="859" r="8" fill="#A3B9CA"/>
<circle cx="483" cy="881" r="8" fill="#A3B9CA"/>
<circle cx="505" cy="793" r="8" fill="#A3B9CA"/>
<circle cx="505" cy="815" r="8" fill="#A3B9CA"/>
<circle cx="505" cy="837" r="8" fill="#A3B9CA"/>
<circle cx="505" cy="859" r="8" fill="#A3B9CA"/>
<circle cx="505" cy="881" r="8" fill="#A3B9CA"/>
<circle cx="527" cy="793" r="8" fill="#A3B9CA"/>
<circle cx="527" cy="815" r="8" fill="#A3B9CA"/>
<circle cx="527" cy="837" r="8" fill="#A3B9CA"/>
<circle cx="527" cy="859" r="8" fill="#A3B9CA"/>
<circle cx="527" cy="881" r="8" fill="#A3B9CA"/>
<circle cx="549" cy="793" r="8" fill="#A3B9CA"/>
<circle cx="549" cy="815" r="8" fill="#A3B9CA"/>
<circle cx="549" cy="837" r="8" fill="#A3B9CA"/>
<circle cx="549" cy="859" r="8" fill="#A3B9CA"/>
<circle cx="549" cy="881" r="8" fill="#A3B9CA"/>
<circle cx="571" cy="793" r="8" fill="#A3B9CA"/>
<circle cx="571" cy="815" r="8" fill="#A3B9CA"/>
<circle cx="571" cy="837" r="8" fill="#A3B9CA"/>
<circle cx="571" cy="859" r="8" fill="#A3B9CA"/>
<circle cx="571" cy="881" r="8" fill="#A3B9CA"/>
<circle cx="593" cy="793" r="8" fill="#A3B9CA"/>
<circle cx="593" cy="815" r="8" fill="#A3B9CA"/>
<circle cx="593" cy="837" r="8" fill="#A3B9CA"/>
<circle cx="593" cy="859" r="8" fill="#A3B9CA"/>
<circle cx="593" cy="881" r="8" fill="#A3B9CA"/>
<circle cx="615" cy="793" r="8" fill="#A3B9CA"/>
<circle cx="615" cy="815" r="8" fill="#A3B9CA"/>
<circle cx="615" cy="837" r="8" fill="#A3B9CA"/>
<circle cx="615" cy="859" r="8" fill="#A3B9CA"/>
<circle cx="615" cy="881" r="8" fill="#A3B9CA"/>
<circle cx="637" cy="793" r="8" fill="#A3B9CA"/>
<circle cx="637" cy="815" r="8" fill="#A3B9CA"/>
<circle cx="637" cy="837" r="8" fill="#A3B9CA"/>
<circle cx="637" cy="859" r="8" fill="#A3B9CA"/>
<circle cx="637" cy="881" r="8" fill="#A3B9CA"/>
<circle cx="659" cy="793" r="8" fill="#A3B9CA"/>
<circle cx="659" cy="815" r="8" fill="#A3B9CA"/>
<circle cx="659" cy="837" r="8" fill="#A3B9CA"/>
<circle cx="659" cy="859" r="8" fill="#A3B9CA"/>
<circle cx="659" cy="881" r="8" fill="#A3B9CA"/>
<circle cx="681" cy="793" r="8" fill="#A3B9CA"/>
<circle cx="681" cy="815" r="8" fill="#A3B9CA"/>
<circle cx="681" cy="837" r="8" fill="#A3B9CA"/>
<circle cx="681" cy="859" r="8" fill="#A3B9CA"/>
<circle cx="681" cy="881" r="8" fill="#A3B9CA"/>
<circle cx="703" cy="793" r="8" fill="#A3B9CA"/>
<circle cx="703" cy="815" r="8" fill="#A3B9CA"/>
<circle cx="703" cy="837" r="8" fill="#A3B9CA"/>
<circle cx="703" cy="859" r="8" fill="#A3B9CA"/>
<circle cx="703" cy="881" r="8" fill="#A3B9CA"/>
</g>
<path d="M93.1303 278.782C86.5137 287.969 88.5975 300.78 97.7847 307.397C106.972 314.013 119.783 311.93 126.4 302.742L260.814 116.107C267.431 106.92 265.347 94.1082 256.16 87.4916C246.973 80.875 234.161 82.9589 227.545 92.1461L210.608 115.663L130.899 226.339L93.1303 278.782Z" fill="#3BA8E5" fill-opacity="0.05"/>
<path d="M185.676 290.593C179.06 299.78 181.143 312.592 190.331 319.209C199.518 325.825 212.329 323.741 218.946 314.554L347.224 136.439C353.841 127.252 351.757 114.44 342.569 107.824C333.382 101.207 320.571 103.291 313.954 112.478L185.676 290.593Z" fill="#3BA8E5" fill-opacity="0.05"/>
<path d="M234.749 361.057C228.132 370.244 230.216 383.056 239.403 389.672C248.59 396.289 261.402 394.205 268.018 385.018L402.433 198.382C409.049 189.195 406.965 176.384 397.778 169.767C388.591 163.151 375.78 165.234 369.163 174.422L234.749 361.057Z" fill="#3BA8E5" fill-opacity="0.05"/>
<path d="M235.48 291.596C235.48 291.596 250.18 264.34 269.655 278.366C289.13 292.392 268.131 314.706 268.131 314.706L292.212 281.269L316.677 247.298C316.677 247.298 300.884 274.361 282.22 260.92C263.557 247.478 283.702 223.784 283.702 223.784L259.754 257.892L235.48 291.596Z" fill="#3BA8E5" fill-opacity="0.05"/>
<path d="M187.179 218.351C187.179 218.351 202.163 191.556 221.638 205.582C241.113 219.607 220.449 242.312 220.449 242.312L294.669 139.256C294.669 139.256 278.581 165.873 259.917 152.431C241.253 138.99 261.399 115.295 261.399 115.295L187.179 218.351Z" fill="#3BA8E5" fill-opacity="0.05"/>
<path fill-rule="evenodd" clip-rule="evenodd" d="M177.338 91.7021L180.541 87.2546C180.541 87.2546 179.096 88.9545 177.338 91.7021ZM92.8796 208.973L97.6291 202.379C94.5987 205.899 92.8796 208.973 92.8796 208.973Z" fill="#3BA8E5" fill-opacity="0.05"/>
<path fill-rule="evenodd" clip-rule="evenodd" d="M97.6291 202.379C94.5987 205.899 92.8796 208.973 92.8796 208.973L97.6291 202.379ZM180.541 87.2546C180.541 87.2546 179.096 88.9545 177.338 91.7021L180.541 87.2546ZM213.811 111.215C213.811 111.215 212.657 113.125 210.608 115.663L213.811 111.215ZM130.899 226.339C128.52 230.329 126.149 232.934 126.149 232.934L130.899 226.339Z" fill="#3BA8E5" fill-opacity="0.05"/>
<defs>
<clipPath id="clip0_283_9110">
<rect width="346" height="454" fill="white" transform="translate(365 435)"/>
</clipPath>
</defs>
</svg>
