<svg width="60" height="30" viewBox="0 0 60 30" fill="none" xmlns="http://www.w3.org/2000/svg">
<circle cx="15" cy="15" r="13" fill="#668AA7"/>
<g clip-path="url(#clip0_228_13431)">
<path d="M20.8019 16.3762C20.6426 16.2779 20.437 16.296 20.2991 16.422C19.2949 17.3329 17.9958 17.8348 16.642 17.8348C13.6371 17.8348 11.1923 15.39 11.1923 12.385C11.1923 11.0311 11.6942 9.73217 12.605 8.72792C12.7307 8.58949 12.7496 8.38442 12.6509 8.22516C12.5522 8.06633 12.359 7.99263 12.1805 8.04305C9.13004 8.90683 7 11.7267 7 14.9002C7 18.8301 10.197 22.0269 14.1267 22.0269C17.3003 22.0269 20.1202 19.8969 20.984 16.8466C21.0352 16.6664 20.9607 16.4748 20.8019 16.3762Z" fill="#364857"/>
<path d="M13.9417 13.558L14.9349 14.0541L15.431 15.0474C15.5018 15.1894 15.6472 15.279 15.806 15.279C15.965 15.279 16.1098 15.1894 16.181 15.0474L16.6777 14.0541L17.6704 13.558C17.8125 13.4867 17.9021 13.3418 17.9021 13.183C17.9021 13.0241 17.8125 12.8792 17.6704 12.8079L16.6777 12.3117L16.181 11.3186C16.0386 11.0344 15.5728 11.0344 15.431 11.3186L14.9349 12.3117L13.9417 12.8079C13.7997 12.8788 13.71 13.0241 13.71 13.183C13.71 13.3418 13.7997 13.4872 13.9417 13.558Z" fill="#364857"/>
<path d="M18.3185 10.2901H18.7378V10.7094C18.7378 10.941 18.9253 11.1286 19.157 11.1286C19.3887 11.1286 19.5763 10.941 19.5763 10.7094V10.2901H19.9955C20.2272 10.2901 20.4147 10.1027 20.4147 9.87088C20.4147 9.63921 20.2272 9.45175 19.9955 9.45175H19.5763V9.03252C19.5763 8.80074 19.3887 8.61328 19.157 8.61328C18.9253 8.61328 18.7378 8.80074 18.7378 9.03252V9.45175H18.3185C18.0869 9.45175 17.8994 9.63921 17.8994 9.87088C17.8994 10.1027 18.0869 10.2901 18.3185 10.2901V10.2901Z" fill="#364857"/>
</g>
<defs>
<clipPath id="clip0_228_13431">
<rect width="14" height="14" fill="white" transform="translate(7 8)"/>
</clipPath>
</defs>
</svg>
