<svg width="14" height="14" viewBox="0 0 14 14" fill="none" xmlns="http://www.w3.org/2000/svg">
<g clip-path="url(#clip0_356_6883)">
<path d="M13.8019 8.37617C13.6426 8.27791 13.437 8.29596 13.2991 8.422C12.2949 9.33288 10.9958 9.83479 9.642 9.83479C6.63706 9.83479 4.19225 7.38998 4.19225 4.38505C4.19225 3.0311 4.69416 1.73217 5.60505 0.727922C5.73066 0.589494 5.74957 0.384416 5.65087 0.22516C5.55218 0.0663308 5.35896 -0.00736922 5.18047 0.0430459C2.13004 0.906832 0 3.72666 0 6.90025C0 10.8301 3.19698 14.0269 7.12669 14.0269C10.3003 14.0269 13.1202 11.8969 13.984 8.84657C14.0352 8.66638 13.9607 8.47476 13.8019 8.37617Z" fill="#364857"/>
<path d="M6.94174 5.55797L7.93488 6.05411L8.43102 7.04735C8.50183 7.18941 8.6472 7.27903 8.80603 7.27903C8.96497 7.27903 9.10981 7.18941 9.18105 7.04735L9.67772 6.05411L10.6704 5.55797C10.8125 5.48673 10.9021 5.34178 10.9021 5.18296C10.9021 5.02413 10.8125 4.87918 10.6704 4.80794L9.67772 4.31169L9.18105 3.31856C9.03856 3.03444 8.57276 3.03444 8.43102 3.31856L7.93488 4.31169L6.94174 4.80794C6.79968 4.87876 6.70996 5.02413 6.70996 5.18296C6.70996 5.34178 6.79968 5.48716 6.94174 5.55797Z" fill="#364857"/>
<path d="M11.3185 2.29012H11.7378V2.70935C11.7378 2.94103 11.9253 3.12859 12.157 3.12859C12.3887 3.12859 12.5763 2.94103 12.5763 2.70935V2.29012H12.9955C13.2272 2.29012 13.4147 2.10266 13.4147 1.87088C13.4147 1.63921 13.2272 1.45175 12.9955 1.45175H12.5763V1.03252C12.5763 0.800736 12.3887 0.613281 12.157 0.613281C11.9253 0.613281 11.7378 0.800736 11.7378 1.03252V1.45175H11.3185C11.0869 1.45175 10.8994 1.63921 10.8994 1.87088C10.8994 2.10266 11.0869 2.29012 11.3185 2.29012Z" fill="#364857"/>
</g>
<defs>
<clipPath id="clip0_356_6883">
<rect width="14" height="14" fill="white"/>
</clipPath>
</defs>
</svg>
