<svg width="16" height="16" viewBox="0 0 16 16" fill="none" xmlns="http://www.w3.org/2000/svg">
<g clip-path="url(#clip0_356_1987)">
<path d="M12.0497 8.00054C12.0497 10.4149 10.4144 12.3722 8.00002 12.3722C5.58563 12.3722 3.62842 10.4149 3.62842 8.00054C3.62842 5.58615 5.58567 3.62891 8.00006 3.62891C10.4144 3.62891 12.0497 5.58615 12.0497 8.00054Z" fill="#FEE45A"/>
<path d="M7.99999 3.62891C7.83674 3.62891 7.67567 3.63815 7.51709 3.65559C9.7042 3.89598 11.4058 5.74941 11.4058 8.00054C11.4058 10.2517 9.7042 12.1051 7.51709 12.3455C7.67567 12.3629 7.83674 12.3722 7.99999 12.3722C10.4144 12.3722 12.3716 10.4149 12.3716 8.00054C12.3716 5.58615 10.4143 3.62891 7.99999 3.62891Z" fill="#FED402"/>
<path d="M7.99989 2.55713H7.20929C7.09343 2.55713 7.0125 2.44243 7.05135 2.33326L7.4858 1.11234L7.84195 0.111453C7.89485 -0.0371509 8.10497 -0.0371509 8.15787 0.111453L8.51402 1.11234L8.94847 2.33326C8.98732 2.4424 8.90636 2.55713 8.79053 2.55713H7.99989Z" fill="#FEE45A"/>
<path d="M7.99991 13.4434H8.79051C8.90638 13.4434 8.98731 13.5581 8.94845 13.6672L8.514 14.8882L8.15785 15.889C8.10496 16.0376 7.89483 16.0376 7.84194 15.889L7.48579 14.8882L7.05134 13.6672C7.01252 13.5581 7.09345 13.4434 7.20928 13.4434H7.99991Z" fill="#FEE45A"/>
<path d="M13.4429 7.99941V7.20881C13.4429 7.09294 13.5576 7.01201 13.6667 7.05087L14.8877 7.48531L15.8886 7.84147C16.0372 7.89436 16.0372 8.10448 15.8886 8.15738L14.8877 8.51353L13.6667 8.94798C13.5576 8.98683 13.4429 8.90587 13.4429 8.79004V7.99941Z" fill="#FED402"/>
<path d="M2.55713 7.99942V8.79002C2.55713 8.90589 2.44243 8.98682 2.33326 8.94796L1.11234 8.51352L0.111453 8.15736C-0.0371509 8.1045 -0.0371509 7.89435 0.111453 7.84145L1.11234 7.4853L2.33326 7.05085C2.44243 7.01203 2.55713 7.09296 2.55713 7.20879V7.99942Z" fill="#FEE45A"/>
<path d="M4.15136 4.15089L3.59232 4.70992C3.51039 4.79185 3.37206 4.76796 3.32235 4.6633L2.76625 3.49279L2.31033 2.53321C2.24262 2.39076 2.39123 2.24215 2.53371 2.30982L3.4933 2.76571L4.66381 3.32182C4.76847 3.37152 4.79232 3.50989 4.71042 3.59179L4.15136 4.15089Z" fill="#FEE45A"/>
<path d="M11.8487 11.8484L12.4077 11.2894C12.4896 11.2074 12.628 11.2313 12.6777 11.336L13.2338 12.5065L13.6897 13.4661C13.7574 13.6085 13.6088 13.7571 13.4663 13.6895L12.5067 13.2336L11.3362 12.6774C11.2316 12.6277 11.2077 12.4894 11.2896 12.4075L11.8487 11.8484Z" fill="#FED402"/>
<path d="M11.8487 4.15084L11.2896 3.5918C11.2077 3.50987 11.2316 3.37154 11.3362 3.32183L12.5067 2.76572L13.4663 2.30984C13.6088 2.24214 13.7574 2.39074 13.6897 2.53323L13.2338 3.49281L12.6777 4.66332C12.628 4.76798 12.4896 4.79183 12.4077 4.70993L11.8487 4.15084Z" fill="#FED402"/>
<path d="M4.15137 11.8485L4.71041 12.4075C4.79234 12.4894 4.76845 12.6278 4.66379 12.6775L3.49328 13.2336L2.5337 13.6895C2.39125 13.7572 2.24264 13.6086 2.31031 13.4661L2.7662 12.5065L3.3223 11.336C3.37201 11.2313 3.51038 11.2075 3.59228 11.2894L4.15137 11.8485Z" fill="#FEE45A"/>
</g>
<defs>
<clipPath id="clip0_356_1987">
<rect width="16" height="16" fill="white"/>
</clipPath>
</defs>
</svg>
