<svg width="60" height="30" viewBox="0 0 60 30" fill="none" xmlns="http://www.w3.org/2000/svg">
<rect width="60" height="30" rx="15" fill="#DAE7F1"/>
<path d="M10.88 18C10.8213 18 10.776 17.984 10.744 17.952C10.712 17.9147 10.696 17.8693 10.696 17.816V12.584C10.696 12.5307 10.712 12.488 10.744 12.456C10.776 12.4187 10.8213 12.4 10.88 12.4H11.304C11.3573 12.4 11.4 12.4187 11.432 12.456C11.464 12.488 11.48 12.5307 11.48 12.584V17.304H14.144C14.2027 17.304 14.248 17.3227 14.28 17.36C14.312 17.392 14.328 17.4373 14.328 17.496V17.816C14.328 17.8693 14.312 17.9147 14.28 17.952C14.248 17.984 14.2027 18 14.144 18H10.88ZM15.2838 18C15.2305 18 15.1851 17.984 15.1478 17.952C15.1158 17.9147 15.0998 17.8693 15.0998 17.816V14.024C15.0998 13.9707 15.1158 13.928 15.1478 13.896C15.1851 13.8587 15.2305 13.84 15.2838 13.84H15.6678C15.7211 13.84 15.7638 13.8587 15.7958 13.896C15.8278 13.928 15.8438 13.9707 15.8438 14.024V17.816C15.8438 17.8693 15.8278 17.9147 15.7958 17.952C15.7638 17.984 15.7211 18 15.6678 18H15.2838ZM15.2198 13.064C15.1665 13.064 15.1211 13.048 15.0838 13.016C15.0518 12.9787 15.0358 12.9333 15.0358 12.88V12.448C15.0358 12.3947 15.0518 12.352 15.0838 12.32C15.1211 12.2827 15.1665 12.264 15.2198 12.264H15.7238C15.7771 12.264 15.8198 12.2827 15.8518 12.32C15.8891 12.352 15.9078 12.3947 15.9078 12.448V12.88C15.9078 12.9333 15.8891 12.9787 15.8518 13.016C15.8198 13.048 15.7771 13.064 15.7238 13.064H15.2198ZM18.7413 19.76C18.3786 19.76 18.08 19.712 17.8453 19.616C17.616 19.52 17.4346 19.4027 17.3013 19.264C17.1733 19.1307 17.08 18.9947 17.0213 18.856C16.968 18.7227 16.9386 18.616 16.9333 18.536C16.928 18.4827 16.944 18.4373 16.9813 18.4C17.024 18.3627 17.0693 18.344 17.1173 18.344H17.5013C17.5493 18.344 17.5893 18.3547 17.6213 18.376C17.6533 18.3973 17.68 18.4427 17.7013 18.512C17.7333 18.592 17.7813 18.68 17.8453 18.776C17.9093 18.8773 18.008 18.9627 18.1413 19.032C18.2746 19.1067 18.4613 19.144 18.7013 19.144C18.952 19.144 19.1626 19.1093 19.3333 19.04C19.504 18.976 19.632 18.8587 19.7173 18.688C19.808 18.5227 19.8533 18.2933 19.8533 18V17.456C19.7253 17.6213 19.5573 17.76 19.3493 17.872C19.1413 17.9787 18.88 18.032 18.5653 18.032C18.2666 18.032 18.0106 17.9813 17.7973 17.88C17.584 17.7733 17.408 17.632 17.2693 17.456C17.136 17.2747 17.0346 17.0693 16.9653 16.84C16.9013 16.6107 16.864 16.3707 16.8533 16.12C16.848 15.9707 16.848 15.824 16.8533 15.68C16.864 15.4293 16.9013 15.1893 16.9653 14.96C17.0346 14.7307 17.136 14.5253 17.2693 14.344C17.408 14.1627 17.584 14.0213 17.7973 13.92C18.0106 13.8133 18.2666 13.76 18.5653 13.76C18.8853 13.76 19.1493 13.8213 19.3573 13.944C19.5706 14.0613 19.744 14.2053 19.8773 14.376V14.032C19.8773 13.9787 19.8933 13.9333 19.9253 13.896C19.9626 13.8587 20.008 13.84 20.0613 13.84H20.4293C20.4826 13.84 20.528 13.8587 20.5653 13.896C20.6026 13.9333 20.6213 13.9787 20.6213 14.032V17.912C20.6213 18.2693 20.56 18.5867 20.4373 18.864C20.32 19.1413 20.1226 19.36 19.8453 19.52C19.5733 19.68 19.2053 19.76 18.7413 19.76ZM18.7253 17.392C18.992 17.392 19.2053 17.3307 19.3653 17.208C19.5306 17.0853 19.6506 16.9307 19.7253 16.744C19.8053 16.5573 19.848 16.368 19.8533 16.176C19.8586 16.1013 19.8613 16.0107 19.8613 15.904C19.8613 15.792 19.8586 15.6987 19.8533 15.624C19.848 15.432 19.8053 15.2427 19.7253 15.056C19.6506 14.8693 19.5306 14.7147 19.3653 14.592C19.2053 14.4693 18.992 14.408 18.7253 14.408C18.4586 14.408 18.2453 14.4693 18.0853 14.592C17.9253 14.7093 17.8106 14.8667 17.7413 15.064C17.672 15.256 17.632 15.464 17.6213 15.688C17.616 15.8267 17.616 15.968 17.6213 16.112C17.632 16.336 17.672 16.5467 17.7413 16.744C17.8106 16.936 17.9253 17.0933 18.0853 17.216C18.2453 17.3333 18.4586 17.392 18.7253 17.392ZM22.0028 18C21.9494 18 21.9041 17.984 21.8668 17.952C21.8348 17.9147 21.8188 17.8693 21.8188 17.816V12.504C21.8188 12.4507 21.8348 12.408 21.8668 12.376C21.9041 12.3387 21.9494 12.32 22.0028 12.32H22.4028C22.4614 12.32 22.5068 12.3387 22.5388 12.376C22.5708 12.408 22.5868 12.4507 22.5868 12.504V14.368C22.7308 14.1867 22.9068 14.04 23.1148 13.928C23.3228 13.816 23.5868 13.76 23.9068 13.76C24.2534 13.76 24.5468 13.8373 24.7868 13.992C25.0321 14.1413 25.2161 14.352 25.3388 14.624C25.4668 14.8907 25.5308 15.2027 25.5308 15.56V17.816C25.5308 17.8693 25.5148 17.9147 25.4828 17.952C25.4508 17.984 25.4054 18 25.3468 18H24.9468C24.8934 18 24.8481 17.984 24.8108 17.952C24.7788 17.9147 24.7628 17.8693 24.7628 17.816V15.6C24.7628 15.2267 24.6721 14.936 24.4908 14.728C24.3094 14.5147 24.0428 14.408 23.6908 14.408C23.3601 14.408 23.0934 14.5147 22.8908 14.728C22.6881 14.936 22.5868 15.2267 22.5868 15.6V17.816C22.5868 17.8693 22.5708 17.9147 22.5388 17.952C22.5068 17.984 22.4614 18 22.4028 18H22.0028ZM28.2551 18C27.9564 18 27.7137 17.944 27.5271 17.832C27.3404 17.7147 27.2044 17.552 27.1191 17.344C27.0337 17.1307 26.9911 16.88 26.9911 16.592V14.48H26.3671C26.3137 14.48 26.2684 14.464 26.2311 14.432C26.1991 14.3947 26.1831 14.3493 26.1831 14.296V14.024C26.1831 13.9707 26.1991 13.928 26.2311 13.896C26.2684 13.8587 26.3137 13.84 26.3671 13.84H26.9911V12.504C26.9911 12.4507 27.0071 12.408 27.0391 12.376C27.0764 12.3387 27.1217 12.32 27.1751 12.32H27.5511C27.6044 12.32 27.6471 12.3387 27.6791 12.376C27.7164 12.408 27.7351 12.4507 27.7351 12.504V13.84H28.7271C28.7804 13.84 28.8231 13.8587 28.8551 13.896C28.8924 13.928 28.9111 13.9707 28.9111 14.024V14.296C28.9111 14.3493 28.8924 14.3947 28.8551 14.432C28.8231 14.464 28.7804 14.48 28.7271 14.48H27.7351V16.536C27.7351 16.7867 27.7777 16.984 27.8631 17.128C27.9484 17.272 28.1004 17.344 28.3191 17.344H28.8071C28.8604 17.344 28.9031 17.3627 28.9351 17.4C28.9724 17.432 28.9911 17.4747 28.9911 17.528V17.816C28.9911 17.8693 28.9724 17.9147 28.9351 17.952C28.9031 17.984 28.8604 18 28.8071 18H28.2551Z" fill="#668AA7"/>
<circle cx="45" cy="15" r="13" fill="white" fill-opacity="0.7"/>
<g clip-path="url(#clip0_243_9274)">
<path d="M49.0497 15.0005C49.0497 17.4149 47.4144 19.3722 45 19.3722C42.5856 19.3722 40.6284 17.4149 40.6284 15.0005C40.6284 12.5862 42.5857 10.6289 45.0001 10.6289C47.4144 10.6289 49.0497 12.5862 49.0497 15.0005Z" fill="#FEE45A"/>
<path d="M45 10.6289C44.8367 10.6289 44.6757 10.6381 44.5171 10.6556C46.7042 10.896 48.4058 12.7494 48.4058 15.0005C48.4058 17.2517 46.7042 19.1051 44.5171 19.3455C44.6757 19.3629 44.8367 19.3722 45 19.3722C47.4144 19.3722 49.3716 17.4149 49.3716 15.0005C49.3716 12.5862 47.4143 10.6289 45 10.6289Z" fill="#FED402"/>
<path d="M44.9999 9.55713H44.2093C44.0934 9.55713 44.0125 9.44243 44.0514 9.33326L44.4858 8.11234L44.842 7.11145C44.8948 6.96285 45.105 6.96285 45.1579 7.11145L45.514 8.11234L45.9485 9.33326C45.9873 9.4424 45.9064 9.55713 45.7905 9.55713H44.9999Z" fill="#FEE45A"/>
<path d="M44.9999 20.4434H45.7905C45.9064 20.4434 45.9873 20.5581 45.9485 20.6672L45.514 21.8882L45.1579 22.889C45.105 23.0376 44.8948 23.0376 44.8419 22.889L44.4858 21.8882L44.0513 20.6672C44.0125 20.5581 44.0934 20.4434 44.2093 20.4434H44.9999Z" fill="#FEE45A"/>
<path d="M50.4429 14.9994V14.2088C50.4429 14.0929 50.5576 14.012 50.6667 14.0509L51.8877 14.4853L52.8886 14.8415C53.0372 14.8944 53.0372 15.1045 52.8886 15.1574L51.8877 15.5135L50.6667 15.948C50.5576 15.9868 50.4429 15.9059 50.4429 15.79V14.9994Z" fill="#FED402"/>
<path d="M39.5571 14.9994V15.79C39.5571 15.9059 39.4424 15.9868 39.3333 15.948L38.1123 15.5135L37.1115 15.1574C36.9628 15.1045 36.9628 14.8943 37.1115 14.8415L38.1123 14.4853L39.3333 14.0509C39.4424 14.012 39.5571 14.093 39.5571 14.2088V14.9994Z" fill="#FEE45A"/>
<path d="M41.1514 11.1509L40.5923 11.7099C40.5104 11.7919 40.3721 11.768 40.3223 11.6633L39.7662 10.4928L39.3103 9.53321C39.2426 9.39076 39.3912 9.24215 39.5337 9.30982L40.4933 9.76571L41.6638 10.3218C41.7685 10.3715 41.7923 10.5099 41.7104 10.5918L41.1514 11.1509Z" fill="#FEE45A"/>
<path d="M48.8487 18.8484L49.4077 18.2894C49.4896 18.2074 49.628 18.2313 49.6777 18.336L50.2338 19.5065L50.6897 20.4661C50.7574 20.6085 50.6088 20.7571 50.4663 20.6895L49.5067 20.2336L48.3362 19.6774C48.2316 19.6277 48.2077 19.4894 48.2896 19.4075L48.8487 18.8484Z" fill="#FED402"/>
<path d="M48.8487 11.1508L48.2896 10.5918C48.2077 10.5099 48.2316 10.3715 48.3362 10.3218L49.5067 9.76572L50.4663 9.30984C50.6088 9.24214 50.7574 9.39074 50.6897 9.53323L50.2338 10.4928L49.6777 11.6633C49.628 11.768 49.4896 11.7918 49.4077 11.7099L48.8487 11.1508Z" fill="#FED402"/>
<path d="M41.1514 18.8485L41.7104 19.4075C41.7923 19.4894 41.7685 19.6278 41.6638 19.6775L40.4933 20.2336L39.5337 20.6895C39.3912 20.7572 39.2426 20.6086 39.3103 20.4661L39.7662 19.5065L40.3223 18.336C40.372 18.2313 40.5104 18.2075 40.5923 18.2894L41.1514 18.8485Z" fill="#FEE45A"/>
</g>
<defs>
<clipPath id="clip0_243_9274">
<rect width="16" height="16" fill="white" transform="translate(37 7)"/>
</clipPath>
</defs>
</svg>
