<svg width="390" height="844" viewBox="0 0 390 844" fill="none" xmlns="http://www.w3.org/2000/svg">
<g clip-path="url(#clip0_125_5047)">
<rect width="390" height="844" fill="white"/>
<rect width="390" height="844" fill="url(#paint0_linear_125_5047)"/>
<circle cx="0.5" cy="709.5" r="22.5" fill="#38D279"/>
<circle cx="390.5" cy="709.5" r="22.5" fill="#3BA8E5"/>
<circle cx="390.5" cy="222.5" r="22.5" fill="#FFBB33"/>
<circle cx="44.5" cy="222.5" r="22.5" fill="#FE3D6A"/>
<path d="M163.505 242.72C162.449 242.72 161.532 242.573 160.755 242.28C159.978 241.972 159.332 241.554 158.819 241.026C158.32 240.498 157.939 239.882 157.675 239.178C157.411 238.474 157.257 237.719 157.213 236.912C157.198 236.516 157.184 236.069 157.169 235.57C157.169 235.057 157.169 234.543 157.169 234.03C157.184 233.502 157.198 233.033 157.213 232.622C157.257 231.815 157.411 231.067 157.675 230.378C157.954 229.674 158.35 229.065 158.863 228.552C159.391 228.024 160.036 227.613 160.799 227.32C161.576 227.027 162.478 226.88 163.505 226.88C164.546 226.88 165.448 227.027 166.211 227.32C166.974 227.613 167.612 228.024 168.125 228.552C168.653 229.065 169.056 229.674 169.335 230.378C169.614 231.067 169.768 231.815 169.797 232.622C169.826 233.033 169.841 233.502 169.841 234.03C169.856 234.543 169.856 235.057 169.841 235.57C169.841 236.069 169.826 236.516 169.797 236.912C169.768 237.719 169.614 238.474 169.335 239.178C169.071 239.882 168.682 240.498 168.169 241.026C167.67 241.554 167.032 241.972 166.255 242.28C165.492 242.573 164.576 242.72 163.505 242.72ZM163.505 239.53C164.268 239.53 164.818 239.288 165.155 238.804C165.507 238.305 165.69 237.638 165.705 236.802C165.734 236.377 165.749 235.929 165.749 235.46C165.764 234.991 165.764 234.521 165.749 234.052C165.749 233.583 165.734 233.15 165.705 232.754C165.69 231.947 165.507 231.295 165.155 230.796C164.818 230.297 164.268 230.041 163.505 230.026C162.742 230.041 162.192 230.297 161.855 230.796C161.518 231.295 161.334 231.947 161.305 232.754C161.29 233.15 161.276 233.583 161.261 234.052C161.261 234.521 161.261 234.991 161.261 235.46C161.276 235.929 161.29 236.377 161.305 236.802C161.334 237.638 161.525 238.305 161.877 238.804C162.229 239.288 162.772 239.53 163.505 239.53ZM178.458 242.72C177.402 242.72 176.485 242.573 175.708 242.28C174.931 241.972 174.285 241.554 173.772 241.026C173.273 240.498 172.892 239.882 172.628 239.178C172.364 238.474 172.21 237.719 172.166 236.912C172.151 236.516 172.137 236.069 172.122 235.57C172.122 235.057 172.122 234.543 172.122 234.03C172.137 233.502 172.151 233.033 172.166 232.622C172.21 231.815 172.364 231.067 172.628 230.378C172.907 229.674 173.303 229.065 173.816 228.552C174.344 228.024 174.989 227.613 175.752 227.32C176.529 227.027 177.431 226.88 178.458 226.88C179.499 226.88 180.401 227.027 181.164 227.32C181.927 227.613 182.565 228.024 183.078 228.552C183.606 229.065 184.009 229.674 184.288 230.378C184.567 231.067 184.721 231.815 184.75 232.622C184.779 233.033 184.794 233.502 184.794 234.03C184.809 234.543 184.809 235.057 184.794 235.57C184.794 236.069 184.779 236.516 184.75 236.912C184.721 237.719 184.567 238.474 184.288 239.178C184.024 239.882 183.635 240.498 183.122 241.026C182.623 241.554 181.985 241.972 181.208 242.28C180.445 242.573 179.529 242.72 178.458 242.72ZM178.458 239.53C179.221 239.53 179.771 239.288 180.108 238.804C180.46 238.305 180.643 237.638 180.658 236.802C180.687 236.377 180.702 235.929 180.702 235.46C180.717 234.991 180.717 234.521 180.702 234.052C180.702 233.583 180.687 233.15 180.658 232.754C180.643 231.947 180.46 231.295 180.108 230.796C179.771 230.297 179.221 230.041 178.458 230.026C177.695 230.041 177.145 230.297 176.808 230.796C176.471 231.295 176.287 231.947 176.258 232.754C176.243 233.15 176.229 233.583 176.214 234.052C176.214 234.521 176.214 234.991 176.214 235.46C176.229 235.929 176.243 236.377 176.258 236.802C176.287 237.638 176.478 238.305 176.83 238.804C177.182 239.288 177.725 239.53 178.458 239.53Z" fill="#668AA7"/>
<path d="M192.092 234.8C191.945 234.8 191.813 234.749 191.696 234.646C191.593 234.543 191.542 234.411 191.542 234.25V231.588C191.542 231.441 191.593 231.317 191.696 231.214C191.813 231.097 191.945 231.038 192.092 231.038H194.886C195.047 231.038 195.179 231.097 195.282 231.214C195.385 231.317 195.436 231.441 195.436 231.588V234.25C195.436 234.411 195.385 234.543 195.282 234.646C195.179 234.749 195.047 234.8 194.886 234.8H192.092ZM192.092 242.5C191.945 242.5 191.813 242.449 191.696 242.346C191.593 242.243 191.542 242.111 191.542 241.95V239.288C191.542 239.141 191.593 239.017 191.696 238.914C191.813 238.797 191.945 238.738 192.092 238.738H194.886C195.047 238.738 195.179 238.797 195.282 238.914C195.385 239.017 195.436 239.141 195.436 239.288V241.95C195.436 242.111 195.385 242.243 195.282 242.346C195.179 242.449 195.047 242.5 194.886 242.5H192.092Z" fill="#668AA7"/>
<g clip-path="url(#clip1_125_5047)">
<path d="M202.843 243C202.682 243 202.542 242.949 202.425 242.846C202.322 242.743 202.271 242.611 202.271 242.45V240.888C202.271 240.785 202.3 240.631 202.359 240.426C202.418 240.206 202.572 240.001 202.821 239.81L205.109 237.566C206.282 236.671 207.243 235.916 207.991 235.3C208.754 234.669 209.318 234.112 209.685 233.628C210.052 233.144 210.235 232.689 210.235 232.264C210.235 231.765 210.103 231.355 209.839 231.032C209.59 230.695 209.15 230.526 208.519 230.526C208.094 230.526 207.734 230.621 207.441 230.812C207.162 230.988 206.95 231.223 206.803 231.516C206.656 231.809 206.554 232.11 206.495 232.418C206.436 232.609 206.334 232.741 206.187 232.814C206.055 232.887 205.908 232.924 205.747 232.924H202.997C202.865 232.924 202.755 232.88 202.667 232.792C202.579 232.704 202.535 232.594 202.535 232.462C202.55 231.758 202.696 231.098 202.975 230.482C203.268 229.866 203.672 229.323 204.185 228.854C204.713 228.37 205.336 227.996 206.055 227.732C206.788 227.468 207.61 227.336 208.519 227.336C209.766 227.336 210.822 227.534 211.687 227.93C212.567 228.326 213.234 228.883 213.689 229.602C214.144 230.306 214.371 231.135 214.371 232.088C214.371 232.807 214.21 233.481 213.887 234.112C213.579 234.728 213.132 235.322 212.545 235.894C211.973 236.451 211.291 237.031 210.499 237.632L208.475 239.678H214.129C214.29 239.678 214.422 239.729 214.525 239.832C214.642 239.935 214.701 240.067 214.701 240.228V242.45C214.701 242.611 214.642 242.743 214.525 242.846C214.422 242.949 214.29 243 214.129 243H202.843ZM223.136 243.22C222.08 243.22 221.163 243.073 220.386 242.78C219.608 242.472 218.963 242.054 218.45 241.526C217.951 240.998 217.57 240.382 217.306 239.678C217.042 238.974 216.888 238.219 216.844 237.412C216.829 237.016 216.814 236.569 216.8 236.07C216.8 235.557 216.8 235.043 216.8 234.53C216.814 234.002 216.829 233.533 216.844 233.122C216.888 232.315 217.042 231.567 217.306 230.878C217.584 230.174 217.98 229.565 218.494 229.052C219.022 228.524 219.667 228.113 220.43 227.82C221.207 227.527 222.109 227.38 223.136 227.38C224.177 227.38 225.079 227.527 225.842 227.82C226.604 228.113 227.242 228.524 227.756 229.052C228.284 229.565 228.687 230.174 228.966 230.878C229.244 231.567 229.398 232.315 229.428 233.122C229.457 233.533 229.472 234.002 229.472 234.53C229.486 235.043 229.486 235.557 229.472 236.07C229.472 236.569 229.457 237.016 229.428 237.412C229.398 238.219 229.244 238.974 228.966 239.678C228.702 240.382 228.313 240.998 227.8 241.526C227.301 242.054 226.663 242.472 225.886 242.78C225.123 243.073 224.206 243.22 223.136 243.22ZM223.136 240.03C223.898 240.03 224.448 239.788 224.786 239.304C225.138 238.805 225.321 238.138 225.336 237.302C225.365 236.877 225.38 236.429 225.38 235.96C225.394 235.491 225.394 235.021 225.38 234.552C225.38 234.083 225.365 233.65 225.336 233.254C225.321 232.447 225.138 231.795 224.786 231.296C224.448 230.797 223.898 230.541 223.136 230.526C222.373 230.541 221.823 230.797 221.486 231.296C221.148 231.795 220.965 232.447 220.936 233.254C220.921 233.65 220.906 234.083 220.892 234.552C220.892 235.021 220.892 235.491 220.892 235.96C220.906 236.429 220.921 236.877 220.936 237.302C220.965 238.138 221.156 238.805 221.508 239.304C221.86 239.788 222.402 240.03 223.136 240.03ZM209.579 271C209.433 271 209.301 270.949 209.183 270.846C209.081 270.743 209.029 270.611 209.029 270.45V259.978L206.015 262.288C205.883 262.391 205.744 262.427 205.597 262.398C205.465 262.369 205.348 262.288 205.245 262.156L203.947 260.462C203.859 260.33 203.823 260.191 203.837 260.044C203.867 259.883 203.955 259.758 204.101 259.67L209.161 255.754C209.249 255.695 209.33 255.659 209.403 255.644C209.491 255.615 209.587 255.6 209.689 255.6H212.439C212.586 255.6 212.711 255.651 212.813 255.754C212.931 255.857 212.989 255.989 212.989 256.15V270.45C212.989 270.611 212.931 270.743 212.813 270.846C212.711 270.949 212.586 271 212.439 271H209.579ZM218.249 271C218.117 271 218.007 270.956 217.919 270.868C217.831 270.765 217.787 270.648 217.787 270.516C217.787 270.443 217.794 270.384 217.809 270.34C217.838 270.296 217.86 270.259 217.875 270.23L220.977 265.984C220.772 266.028 220.559 266.05 220.339 266.05C219.679 266.006 219.034 265.859 218.403 265.61C217.772 265.346 217.2 264.994 216.687 264.554C216.188 264.099 215.792 263.564 215.499 262.948C215.206 262.332 215.059 261.643 215.059 260.88C215.059 260.176 215.191 259.501 215.455 258.856C215.719 258.196 216.115 257.609 216.643 257.096C217.171 256.568 217.824 256.15 218.601 255.842C219.393 255.534 220.31 255.38 221.351 255.38C222.392 255.38 223.309 255.519 224.101 255.798C224.908 256.077 225.582 256.465 226.125 256.964C226.682 257.448 227.1 258.013 227.379 258.658C227.658 259.303 227.797 259.993 227.797 260.726C227.797 261.401 227.672 262.024 227.423 262.596C227.188 263.168 226.895 263.711 226.543 264.224C226.191 264.723 225.839 265.229 225.487 265.742L221.967 270.56C221.908 270.633 221.82 270.729 221.703 270.846C221.586 270.949 221.41 271 221.175 271H218.249ZM221.395 263.168C221.835 263.168 222.231 263.073 222.583 262.882C222.935 262.691 223.214 262.427 223.419 262.09C223.624 261.753 223.727 261.342 223.727 260.858C223.727 260.374 223.624 259.963 223.419 259.626C223.214 259.274 222.935 259.01 222.583 258.834C222.231 258.643 221.835 258.548 221.395 258.548C220.97 258.548 220.581 258.643 220.229 258.834C219.877 259.01 219.598 259.274 219.393 259.626C219.188 259.963 219.085 260.374 219.085 260.858C219.085 261.342 219.188 261.753 219.393 262.09C219.598 262.427 219.877 262.691 220.229 262.882C220.581 263.073 220.97 263.168 221.395 263.168ZM209.182 299C209.035 299 208.903 298.949 208.786 298.846C208.683 298.743 208.632 298.611 208.632 298.45V287.978L205.618 290.288C205.486 290.391 205.347 290.427 205.2 290.398C205.068 290.369 204.951 290.288 204.848 290.156L203.55 288.462C203.462 288.33 203.425 288.191 203.44 288.044C203.469 287.883 203.557 287.758 203.704 287.67L208.764 283.754C208.852 283.695 208.933 283.659 209.006 283.644C209.094 283.615 209.189 283.6 209.292 283.6H212.042C212.189 283.6 212.313 283.651 212.416 283.754C212.533 283.857 212.592 283.989 212.592 284.15V298.45C212.592 298.611 212.533 298.743 212.416 298.846C212.313 298.949 212.189 299 212.042 299H209.182ZM221.459 299.22C220.374 299.22 219.421 299.095 218.599 298.846C217.793 298.597 217.125 298.252 216.597 297.812C216.069 297.357 215.673 296.844 215.409 296.272C215.145 295.685 215.013 295.055 215.013 294.38C215.013 293.573 215.211 292.862 215.607 292.246C216.018 291.63 216.531 291.153 217.147 290.816C216.634 290.479 216.238 290.061 215.959 289.562C215.695 289.049 215.563 288.455 215.563 287.78C215.563 286.959 215.776 286.218 216.201 285.558C216.627 284.898 217.272 284.37 218.137 283.974C219.003 283.578 220.11 283.38 221.459 283.38C222.794 283.38 223.894 283.578 224.759 283.974C225.625 284.355 226.263 284.876 226.673 285.536C227.099 286.196 227.311 286.937 227.311 287.758C227.311 288.418 227.179 289.012 226.915 289.54C226.651 290.053 226.27 290.479 225.771 290.816C226.417 291.139 226.937 291.615 227.333 292.246C227.729 292.877 227.927 293.595 227.927 294.402C227.927 295.282 227.685 296.089 227.201 296.822C226.732 297.555 226.021 298.142 225.067 298.582C224.114 299.007 222.911 299.22 221.459 299.22ZM221.459 296.426C221.929 296.426 222.347 296.345 222.713 296.184C223.095 296.008 223.395 295.773 223.615 295.48C223.835 295.172 223.945 294.813 223.945 294.402C223.945 293.962 223.835 293.595 223.615 293.302C223.395 293.009 223.095 292.781 222.713 292.62C222.347 292.459 221.929 292.378 221.459 292.378C220.99 292.378 220.565 292.459 220.183 292.62C219.802 292.781 219.501 293.009 219.281 293.302C219.061 293.595 218.951 293.962 218.951 294.402C218.951 294.813 219.061 295.172 219.281 295.48C219.501 295.773 219.802 296.008 220.183 296.184C220.565 296.345 220.99 296.426 221.459 296.426ZM221.459 289.716C221.87 289.716 222.244 289.643 222.581 289.496C222.919 289.335 223.183 289.129 223.373 288.88C223.564 288.616 223.659 288.308 223.659 287.956C223.659 287.604 223.564 287.296 223.373 287.032C223.197 286.768 222.941 286.563 222.603 286.416C222.266 286.269 221.885 286.196 221.459 286.196C221.034 286.196 220.653 286.269 220.315 286.416C219.978 286.563 219.714 286.768 219.523 287.032C219.347 287.296 219.259 287.604 219.259 287.956C219.259 288.308 219.347 288.616 219.523 288.88C219.714 289.144 219.978 289.349 220.315 289.496C220.653 289.643 221.034 289.716 221.459 289.716ZM210.321 327C210.174 327 210.042 326.949 209.925 326.846C209.822 326.743 209.771 326.611 209.771 326.45V315.978L206.757 318.288C206.625 318.391 206.485 318.427 206.339 318.398C206.207 318.369 206.089 318.288 205.987 318.156L204.689 316.462C204.601 316.33 204.564 316.191 204.579 316.044C204.608 315.883 204.696 315.758 204.843 315.67L209.903 311.754C209.991 311.695 210.071 311.659 210.145 311.644C210.233 311.615 210.328 311.6 210.431 311.6H213.181C213.327 311.6 213.452 311.651 213.555 311.754C213.672 311.857 213.731 311.989 213.731 312.15V326.45C213.731 326.611 213.672 326.743 213.555 326.846C213.452 326.949 213.327 327 213.181 327H210.321ZM218.264 327C218.132 327 218.022 326.956 217.934 326.868C217.846 326.765 217.802 326.648 217.802 326.516C217.802 326.457 217.817 326.391 217.846 326.318L222.928 314.922H216.328C216.181 314.922 216.049 314.871 215.932 314.768C215.829 314.651 215.778 314.511 215.778 314.35V312.15C215.778 311.989 215.829 311.857 215.932 311.754C216.049 311.651 216.181 311.6 216.328 311.6H226.624C226.8 311.6 226.939 311.651 227.042 311.754C227.145 311.857 227.196 311.989 227.196 312.15V314.108C227.196 314.328 227.174 314.511 227.13 314.658C227.086 314.805 227.027 314.951 226.954 315.098L221.872 326.472C221.828 326.56 221.747 326.67 221.63 326.802C221.513 326.934 221.337 327 221.102 327H218.264ZM209.461 355C209.315 355 209.183 354.949 209.065 354.846C208.963 354.743 208.911 354.611 208.911 354.45V343.978L205.897 346.288C205.765 346.391 205.626 346.427 205.479 346.398C205.347 346.369 205.23 346.288 205.127 346.156L203.829 344.462C203.741 344.33 203.705 344.191 203.719 344.044C203.749 343.883 203.837 343.758 203.983 343.67L209.043 339.754C209.131 339.695 209.212 339.659 209.285 339.644C209.373 339.615 209.469 339.6 209.571 339.6H212.321C212.468 339.6 212.593 339.651 212.695 339.754C212.813 339.857 212.871 339.989 212.871 340.15V354.45C212.871 354.611 212.813 354.743 212.695 354.846C212.593 354.949 212.468 355 212.321 355H209.461ZM221.563 355.22C220.272 355.22 219.135 354.985 218.153 354.516C217.17 354.047 216.4 353.401 215.843 352.58C215.3 351.744 215.029 350.791 215.029 349.72C215.029 349.265 215.095 348.818 215.227 348.378C215.373 347.923 215.549 347.498 215.755 347.102C215.96 346.691 216.165 346.332 216.371 346.024C216.576 345.701 216.745 345.445 216.877 345.254L220.749 340.04C220.822 339.967 220.917 339.879 221.035 339.776C221.152 339.659 221.321 339.6 221.541 339.6H224.467C224.599 339.6 224.709 339.651 224.797 339.754C224.885 339.842 224.929 339.952 224.929 340.084C224.929 340.143 224.921 340.201 224.907 340.26C224.892 340.304 224.87 340.341 224.841 340.37L221.871 344.418C221.959 344.389 222.061 344.374 222.179 344.374C222.311 344.359 222.428 344.352 222.531 344.352C223.191 344.381 223.843 344.528 224.489 344.792C225.134 345.056 225.721 345.415 226.249 345.87C226.777 346.325 227.195 346.875 227.503 347.52C227.825 348.151 227.987 348.862 227.987 349.654C227.987 350.666 227.723 351.597 227.195 352.448C226.667 353.284 225.919 353.959 224.951 354.472C223.997 354.971 222.868 355.22 221.563 355.22ZM221.541 352.052C221.966 352.052 222.362 351.964 222.729 351.788C223.095 351.597 223.389 351.333 223.609 350.996C223.843 350.644 223.961 350.211 223.961 349.698C223.961 349.185 223.851 348.759 223.631 348.422C223.411 348.07 223.117 347.806 222.751 347.63C222.384 347.454 221.981 347.366 221.541 347.366C221.101 347.366 220.69 347.454 220.309 347.63C219.942 347.806 219.649 348.07 219.429 348.422C219.209 348.759 219.099 349.185 219.099 349.698C219.099 350.211 219.209 350.644 219.429 350.996C219.663 351.333 219.964 351.597 220.331 351.788C220.697 351.964 221.101 352.052 221.541 352.052ZM209.515 383C209.368 383 209.236 382.949 209.119 382.846C209.016 382.743 208.965 382.611 208.965 382.45V371.978L205.951 374.288C205.819 374.391 205.68 374.427 205.533 374.398C205.401 374.369 205.284 374.288 205.181 374.156L203.883 372.462C203.795 372.33 203.758 372.191 203.773 372.044C203.802 371.883 203.89 371.758 204.037 371.67L209.097 367.754C209.185 367.695 209.266 367.659 209.339 367.644C209.427 367.615 209.522 367.6 209.625 367.6H212.375C212.522 367.6 212.646 367.651 212.749 367.754C212.866 367.857 212.925 367.989 212.925 368.15V382.45C212.925 382.611 212.866 382.743 212.749 382.846C212.646 382.949 212.522 383 212.375 383H209.515ZM221.396 383.242C220.018 383.242 218.866 383.029 217.942 382.604C217.018 382.164 216.314 381.599 215.83 380.91C215.361 380.206 215.112 379.451 215.082 378.644C215.082 378.512 215.126 378.402 215.214 378.314C215.302 378.226 215.412 378.182 215.544 378.182H218.492C218.683 378.182 218.83 378.226 218.932 378.314C219.05 378.387 219.138 378.483 219.196 378.6C219.328 378.937 219.497 379.216 219.702 379.436C219.922 379.656 220.172 379.817 220.45 379.92C220.744 380.023 221.066 380.074 221.418 380.074C221.829 380.074 222.21 379.986 222.562 379.81C222.914 379.634 223.193 379.377 223.398 379.04C223.618 378.688 223.728 378.27 223.728 377.786C223.728 377.346 223.626 376.965 223.42 376.642C223.23 376.319 222.958 376.063 222.606 375.872C222.254 375.681 221.858 375.586 221.418 375.586C221.066 375.586 220.78 375.63 220.56 375.718C220.34 375.791 220.157 375.887 220.01 376.004C219.864 376.121 219.732 376.224 219.614 376.312C219.497 376.385 219.365 376.422 219.218 376.422H216.336C216.204 376.422 216.087 376.378 215.984 376.29C215.896 376.187 215.852 376.07 215.852 375.938L216.644 368.26C216.674 368.04 216.754 367.879 216.886 367.776C217.018 367.659 217.18 367.6 217.37 367.6H226.192C226.354 367.6 226.486 367.651 226.588 367.754C226.691 367.857 226.742 367.989 226.742 368.15V370.218C226.742 370.379 226.691 370.511 226.588 370.614C226.486 370.717 226.354 370.768 226.192 370.768H219.812L219.526 373.628C219.849 373.408 220.223 373.232 220.648 373.1C221.088 372.953 221.682 372.88 222.43 372.88C223.134 372.88 223.802 372.997 224.432 373.232C225.078 373.467 225.65 373.804 226.148 374.244C226.662 374.684 227.058 375.212 227.336 375.828C227.63 376.429 227.776 377.111 227.776 377.874C227.776 378.915 227.52 379.839 227.006 380.646C226.508 381.453 225.782 382.091 224.828 382.56C223.875 383.015 222.731 383.242 221.396 383.242ZM209.128 411C208.982 411 208.85 410.949 208.732 410.846C208.63 410.743 208.578 410.611 208.578 410.45V399.978L205.564 402.288C205.432 402.391 205.293 402.427 205.146 402.398C205.014 402.369 204.897 402.288 204.794 402.156L203.496 400.462C203.408 400.33 203.372 400.191 203.386 400.044C203.416 399.883 203.504 399.758 203.65 399.67L208.71 395.754C208.798 395.695 208.879 395.659 208.952 395.644C209.04 395.615 209.136 395.6 209.238 395.6H211.988C212.135 395.6 212.26 395.651 212.362 395.754C212.48 395.857 212.538 395.989 212.538 396.15V410.45C212.538 410.611 212.48 410.743 212.362 410.846C212.26 410.949 212.135 411 211.988 411H209.128ZM222.528 411C222.381 411 222.249 410.949 222.132 410.846C222.029 410.743 221.978 410.611 221.978 410.45V407.964H215.136C214.989 407.964 214.857 407.913 214.74 407.81C214.637 407.707 214.586 407.575 214.586 407.414V405.324C214.586 405.192 214.608 405.075 214.652 404.972C214.71 404.855 214.769 404.745 214.828 404.642L221.23 395.974C221.42 395.725 221.692 395.6 222.044 395.6H225.234C225.395 395.6 225.527 395.651 225.63 395.754C225.747 395.857 225.806 395.989 225.806 396.15V404.686H227.742C227.918 404.686 228.057 404.745 228.16 404.862C228.262 404.965 228.314 405.089 228.314 405.236V407.414C228.314 407.575 228.255 407.707 228.138 407.81C228.035 407.913 227.91 407.964 227.764 407.964H225.806V410.45C225.806 410.611 225.747 410.743 225.63 410.846C225.527 410.949 225.395 411 225.234 411H222.528ZM218.37 404.84H222.066V399.648L218.37 404.84ZM209.375 439C209.229 439 209.097 438.949 208.979 438.846C208.877 438.743 208.825 438.611 208.825 438.45V427.978L205.811 430.288C205.679 430.391 205.54 430.427 205.393 430.398C205.261 430.369 205.144 430.288 205.041 430.156L203.743 428.462C203.655 428.33 203.619 428.191 203.633 428.044C203.663 427.883 203.751 427.758 203.897 427.67L208.957 423.754C209.045 423.695 209.126 423.659 209.199 423.644C209.287 423.615 209.383 423.6 209.485 423.6H212.235C212.382 423.6 212.507 423.651 212.609 423.754C212.727 423.857 212.785 423.989 212.785 424.15V438.45C212.785 438.611 212.727 438.743 212.609 438.846C212.507 438.949 212.382 439 212.235 439H209.375ZM221.367 439.22C220.223 439.22 219.247 439.088 218.441 438.824C217.634 438.545 216.974 438.193 216.461 437.768C215.947 437.328 215.566 436.866 215.317 436.382C215.067 435.883 214.935 435.407 214.921 434.952C214.921 434.82 214.965 434.71 215.053 434.622C215.155 434.534 215.273 434.49 215.405 434.49H218.265C218.441 434.49 218.58 434.527 218.683 434.6C218.785 434.659 218.881 434.761 218.969 434.908C219.086 435.187 219.255 435.414 219.475 435.59C219.709 435.766 219.988 435.891 220.311 435.964C220.633 436.023 220.985 436.052 221.367 436.052C222.115 436.052 222.694 435.883 223.105 435.546C223.53 435.194 223.743 434.717 223.743 434.116C223.743 433.485 223.545 433.038 223.149 432.774C222.753 432.495 222.188 432.356 221.455 432.356H219.013C218.851 432.356 218.719 432.305 218.617 432.202C218.514 432.099 218.463 431.967 218.463 431.806V430.574C218.463 430.398 218.499 430.244 218.573 430.112C218.646 429.98 218.727 429.885 218.815 429.826L222.423 426.768H216.307C216.16 426.768 216.028 426.717 215.911 426.614C215.808 426.511 215.757 426.379 215.757 426.218V424.15C215.757 423.989 215.808 423.857 215.911 423.754C216.028 423.651 216.16 423.6 216.307 423.6H226.427C226.588 423.6 226.72 423.651 226.823 423.754C226.94 423.857 226.999 423.989 226.999 424.15V426.02C226.999 426.181 226.962 426.328 226.889 426.46C226.815 426.577 226.735 426.673 226.647 426.746L223.303 429.848L223.457 429.892C224.293 429.995 225.041 430.222 225.701 430.574C226.361 430.911 226.881 431.388 227.263 432.004C227.644 432.62 227.835 433.405 227.835 434.358C227.835 435.355 227.549 436.221 226.977 436.954C226.419 437.673 225.657 438.23 224.689 438.626C223.721 439.022 222.613 439.22 221.367 439.22ZM209.472 467C209.325 467 209.193 466.949 209.076 466.846C208.973 466.743 208.922 466.611 208.922 466.45V455.978L205.908 458.288C205.776 458.391 205.637 458.427 205.49 458.398C205.358 458.369 205.241 458.288 205.138 458.156L203.84 456.462C203.752 456.33 203.715 456.191 203.73 456.044C203.759 455.883 203.847 455.758 203.994 455.67L209.054 451.754C209.142 451.695 209.223 451.659 209.296 451.644C209.384 451.615 209.479 451.6 209.582 451.6H212.332C212.479 451.6 212.603 451.651 212.706 451.754C212.823 451.857 212.882 451.989 212.882 452.15V466.45C212.882 466.611 212.823 466.743 212.706 466.846C212.603 466.949 212.479 467 212.332 467H209.472ZM215.787 467C215.626 467 215.487 466.949 215.369 466.846C215.267 466.743 215.215 466.611 215.215 466.45V464.888C215.215 464.785 215.245 464.631 215.303 464.426C215.362 464.206 215.516 464.001 215.765 463.81L218.053 461.566C219.227 460.671 220.187 459.916 220.935 459.3C221.698 458.669 222.263 458.112 222.629 457.628C222.996 457.144 223.179 456.689 223.179 456.264C223.179 455.765 223.047 455.355 222.783 455.032C222.534 454.695 222.094 454.526 221.463 454.526C221.038 454.526 220.679 454.621 220.385 454.812C220.107 454.988 219.894 455.223 219.747 455.516C219.601 455.809 219.498 456.11 219.439 456.418C219.381 456.609 219.278 456.741 219.131 456.814C218.999 456.887 218.853 456.924 218.691 456.924H215.941C215.809 456.924 215.699 456.88 215.611 456.792C215.523 456.704 215.479 456.594 215.479 456.462C215.494 455.758 215.641 455.098 215.919 454.482C216.213 453.866 216.616 453.323 217.129 452.854C217.657 452.37 218.281 451.996 218.999 451.732C219.733 451.468 220.554 451.336 221.463 451.336C222.71 451.336 223.766 451.534 224.631 451.93C225.511 452.326 226.179 452.883 226.633 453.602C227.088 454.306 227.315 455.135 227.315 456.088C227.315 456.807 227.154 457.481 226.831 458.112C226.523 458.728 226.076 459.322 225.489 459.894C224.917 460.451 224.235 461.031 223.443 461.632L221.419 463.678H227.073C227.235 463.678 227.367 463.729 227.469 463.832C227.587 463.935 227.645 464.067 227.645 464.228V466.45C227.645 466.611 227.587 466.743 227.469 466.846C227.367 466.949 227.235 467 227.073 467H215.787ZM211.158 495C211.012 495 210.88 494.949 210.762 494.846C210.66 494.743 210.608 494.611 210.608 494.45V483.978L207.594 486.288C207.462 486.391 207.323 486.427 207.176 486.398C207.044 486.369 206.927 486.288 206.824 486.156L205.526 484.462C205.438 484.33 205.402 484.191 205.416 484.044C205.446 483.883 205.534 483.758 205.68 483.67L210.74 479.754C210.828 479.695 210.909 479.659 210.982 479.644C211.07 479.615 211.166 479.6 211.268 479.6H214.018C214.165 479.6 214.29 479.651 214.392 479.754C214.51 479.857 214.568 479.989 214.568 480.15V494.45C214.568 494.611 214.51 494.743 214.392 494.846C214.29 494.949 214.165 495 214.018 495H211.158ZM222.094 495C221.947 495 221.815 494.949 221.698 494.846C221.595 494.743 221.544 494.611 221.544 494.45V483.978L218.53 486.288C218.398 486.391 218.259 486.427 218.112 486.398C217.98 486.369 217.863 486.288 217.76 486.156L216.462 484.462C216.374 484.33 216.337 484.191 216.352 484.044C216.381 483.883 216.469 483.758 216.616 483.67L221.676 479.754C221.764 479.695 221.845 479.659 221.918 479.644C222.006 479.615 222.101 479.6 222.204 479.6H224.954C225.101 479.6 225.225 479.651 225.328 479.754C225.445 479.857 225.504 479.989 225.504 480.15V494.45C225.504 494.611 225.445 494.743 225.328 494.846C225.225 494.949 225.101 495 224.954 495H222.094ZM209.15 523C209.003 523 208.871 522.949 208.754 522.846C208.651 522.743 208.6 522.611 208.6 522.45V511.978L205.586 514.288C205.454 514.391 205.314 514.427 205.168 514.398C205.036 514.369 204.918 514.288 204.816 514.156L203.518 512.462C203.43 512.33 203.393 512.191 203.408 512.044C203.437 511.883 203.525 511.758 203.672 511.67L208.732 507.754C208.82 507.695 208.9 507.659 208.974 507.644C209.062 507.615 209.157 507.6 209.26 507.6H212.01C212.156 507.6 212.281 507.651 212.384 507.754C212.501 507.857 212.56 507.989 212.56 508.15V522.45C212.56 522.611 212.501 522.743 212.384 522.846C212.281 522.949 212.156 523 212.01 523H209.15ZM221.449 523.22C220.393 523.22 219.477 523.073 218.699 522.78C217.922 522.472 217.277 522.054 216.763 521.526C216.265 520.998 215.883 520.382 215.619 519.678C215.355 518.974 215.201 518.219 215.157 517.412C215.143 517.016 215.128 516.569 215.113 516.07C215.113 515.557 215.113 515.043 215.113 514.53C215.128 514.002 215.143 513.533 215.157 513.122C215.201 512.315 215.355 511.567 215.619 510.878C215.898 510.174 216.294 509.565 216.807 509.052C217.335 508.524 217.981 508.113 218.743 507.82C219.521 507.527 220.423 507.38 221.449 507.38C222.491 507.38 223.393 507.527 224.155 507.82C224.918 508.113 225.556 508.524 226.069 509.052C226.597 509.565 227.001 510.174 227.279 510.878C227.558 511.567 227.712 512.315 227.741 513.122C227.771 513.533 227.785 514.002 227.785 514.53C227.8 515.043 227.8 515.557 227.785 516.07C227.785 516.569 227.771 517.016 227.741 517.412C227.712 518.219 227.558 518.974 227.279 519.678C227.015 520.382 226.627 520.998 226.113 521.526C225.615 522.054 224.977 522.472 224.199 522.78C223.437 523.073 222.52 523.22 221.449 523.22ZM221.449 520.03C222.212 520.03 222.762 519.788 223.099 519.304C223.451 518.805 223.635 518.138 223.649 517.302C223.679 516.877 223.693 516.429 223.693 515.96C223.708 515.491 223.708 515.021 223.693 514.552C223.693 514.083 223.679 513.65 223.649 513.254C223.635 512.447 223.451 511.795 223.099 511.296C222.762 510.797 222.212 510.541 221.449 510.526C220.687 510.541 220.137 510.797 219.799 511.296C219.462 511.795 219.279 512.447 219.249 513.254C219.235 513.65 219.22 514.083 219.205 514.552C219.205 515.021 219.205 515.491 219.205 515.96C219.22 516.429 219.235 516.877 219.249 517.302C219.279 518.138 219.469 518.805 219.821 519.304C220.173 519.788 220.716 520.03 221.449 520.03ZM208.935 551.22C207.879 551.22 206.962 551.073 206.185 550.78C205.407 550.472 204.762 550.054 204.249 549.526C203.75 548.998 203.369 548.382 203.105 547.678C202.841 546.974 202.687 546.219 202.643 545.412C202.628 545.016 202.613 544.569 202.599 544.07C202.599 543.557 202.599 543.043 202.599 542.53C202.613 542.002 202.628 541.533 202.643 541.122C202.687 540.315 202.841 539.567 203.105 538.878C203.383 538.174 203.779 537.565 204.293 537.052C204.821 536.524 205.466 536.113 206.229 535.82C207.006 535.527 207.908 535.38 208.935 535.38C209.976 535.38 210.878 535.527 211.641 535.82C212.403 536.113 213.041 536.524 213.555 537.052C214.083 537.565 214.486 538.174 214.765 538.878C215.043 539.567 215.197 540.315 215.227 541.122C215.256 541.533 215.271 542.002 215.271 542.53C215.285 543.043 215.285 543.557 215.271 544.07C215.271 544.569 215.256 545.016 215.227 545.412C215.197 546.219 215.043 546.974 214.765 547.678C214.501 548.382 214.112 548.998 213.599 549.526C213.1 550.054 212.462 550.472 211.685 550.78C210.922 551.073 210.005 551.22 208.935 551.22ZM208.935 548.03C209.697 548.03 210.247 547.788 210.585 547.304C210.937 546.805 211.12 546.138 211.135 545.302C211.164 544.877 211.179 544.429 211.179 543.96C211.193 543.491 211.193 543.021 211.179 542.552C211.179 542.083 211.164 541.65 211.135 541.254C211.12 540.447 210.937 539.795 210.585 539.296C210.247 538.797 209.697 538.541 208.935 538.526C208.172 538.541 207.622 538.797 207.285 539.296C206.947 539.795 206.764 540.447 206.735 541.254C206.72 541.65 206.705 542.083 206.691 542.552C206.691 543.021 206.691 543.491 206.691 543.96C206.705 544.429 206.72 544.877 206.735 545.302C206.764 546.138 206.955 546.805 207.307 547.304C207.659 547.788 208.201 548.03 208.935 548.03ZM220.258 551C220.126 551 220.016 550.956 219.928 550.868C219.84 550.765 219.796 550.648 219.796 550.516C219.796 550.443 219.803 550.384 219.818 550.34C219.847 550.296 219.869 550.259 219.884 550.23L222.986 545.984C222.78 546.028 222.568 546.05 222.348 546.05C221.688 546.006 221.042 545.859 220.412 545.61C219.781 545.346 219.209 544.994 218.696 544.554C218.197 544.099 217.801 543.564 217.508 542.948C217.214 542.332 217.068 541.643 217.068 540.88C217.068 540.176 217.2 539.501 217.464 538.856C217.728 538.196 218.124 537.609 218.652 537.096C219.18 536.568 219.832 536.15 220.61 535.842C221.402 535.534 222.318 535.38 223.36 535.38C224.401 535.38 225.318 535.519 226.11 535.798C226.916 536.077 227.591 536.465 228.134 536.964C228.691 537.448 229.109 538.013 229.388 538.658C229.666 539.303 229.806 539.993 229.806 540.726C229.806 541.401 229.681 542.024 229.432 542.596C229.197 543.168 228.904 543.711 228.552 544.224C228.2 544.723 227.848 545.229 227.496 545.742L223.976 550.56C223.917 550.633 223.829 550.729 223.712 550.846C223.594 550.949 223.418 551 223.184 551H220.258ZM223.404 543.168C223.844 543.168 224.24 543.073 224.592 542.882C224.944 542.691 225.222 542.427 225.428 542.09C225.633 541.753 225.736 541.342 225.736 540.858C225.736 540.374 225.633 539.963 225.428 539.626C225.222 539.274 224.944 539.01 224.592 538.834C224.24 538.643 223.844 538.548 223.404 538.548C222.978 538.548 222.59 538.643 222.238 538.834C221.886 539.01 221.607 539.274 221.402 539.626C221.196 539.963 221.094 540.374 221.094 540.858C221.094 541.342 221.196 541.753 221.402 542.09C221.607 542.427 221.886 542.691 222.238 542.882C222.59 543.073 222.978 543.168 223.404 543.168ZM208.537 579.22C207.481 579.22 206.564 579.073 205.787 578.78C205.01 578.472 204.364 578.054 203.851 577.526C203.352 576.998 202.971 576.382 202.707 575.678C202.443 574.974 202.289 574.219 202.245 573.412C202.23 573.016 202.216 572.569 202.201 572.07C202.201 571.557 202.201 571.043 202.201 570.53C202.216 570.002 202.23 569.533 202.245 569.122C202.289 568.315 202.443 567.567 202.707 566.878C202.986 566.174 203.382 565.565 203.895 565.052C204.423 564.524 205.068 564.113 205.831 563.82C206.608 563.527 207.51 563.38 208.537 563.38C209.578 563.38 210.48 563.527 211.243 563.82C212.006 564.113 212.644 564.524 213.157 565.052C213.685 565.565 214.088 566.174 214.367 566.878C214.646 567.567 214.8 568.315 214.829 569.122C214.858 569.533 214.873 570.002 214.873 570.53C214.888 571.043 214.888 571.557 214.873 572.07C214.873 572.569 214.858 573.016 214.829 573.412C214.8 574.219 214.646 574.974 214.367 575.678C214.103 576.382 213.714 576.998 213.201 577.526C212.702 578.054 212.064 578.472 211.287 578.78C210.524 579.073 209.608 579.22 208.537 579.22ZM208.537 576.03C209.3 576.03 209.85 575.788 210.187 575.304C210.539 574.805 210.722 574.138 210.737 573.302C210.766 572.877 210.781 572.429 210.781 571.96C210.796 571.491 210.796 571.021 210.781 570.552C210.781 570.083 210.766 569.65 210.737 569.254C210.722 568.447 210.539 567.795 210.187 567.296C209.85 566.797 209.3 566.541 208.537 566.526C207.774 566.541 207.224 566.797 206.887 567.296C206.55 567.795 206.366 568.447 206.337 569.254C206.322 569.65 206.308 570.083 206.293 570.552C206.293 571.021 206.293 571.491 206.293 571.96C206.308 572.429 206.322 572.877 206.337 573.302C206.366 574.138 206.557 574.805 206.909 575.304C207.261 575.788 207.804 576.03 208.537 576.03ZM223.468 579.22C222.383 579.22 221.43 579.095 220.608 578.846C219.802 578.597 219.134 578.252 218.606 577.812C218.078 577.357 217.682 576.844 217.418 576.272C217.154 575.685 217.022 575.055 217.022 574.38C217.022 573.573 217.22 572.862 217.616 572.246C218.027 571.63 218.54 571.153 219.156 570.816C218.643 570.479 218.247 570.061 217.968 569.562C217.704 569.049 217.572 568.455 217.572 567.78C217.572 566.959 217.785 566.218 218.21 565.558C218.636 564.898 219.281 564.37 220.146 563.974C221.012 563.578 222.119 563.38 223.468 563.38C224.803 563.38 225.903 563.578 226.768 563.974C227.634 564.355 228.272 564.876 228.682 565.536C229.108 566.196 229.32 566.937 229.32 567.758C229.32 568.418 229.188 569.012 228.924 569.54C228.66 570.053 228.279 570.479 227.78 570.816C228.426 571.139 228.946 571.615 229.342 572.246C229.738 572.877 229.936 573.595 229.936 574.402C229.936 575.282 229.694 576.089 229.21 576.822C228.741 577.555 228.03 578.142 227.076 578.582C226.123 579.007 224.92 579.22 223.468 579.22ZM223.468 576.426C223.938 576.426 224.356 576.345 224.722 576.184C225.104 576.008 225.404 575.773 225.624 575.48C225.844 575.172 225.954 574.813 225.954 574.402C225.954 573.962 225.844 573.595 225.624 573.302C225.404 573.009 225.104 572.781 224.722 572.62C224.356 572.459 223.938 572.378 223.468 572.378C222.999 572.378 222.574 572.459 222.192 572.62C221.811 572.781 221.51 573.009 221.29 573.302C221.07 573.595 220.96 573.962 220.96 574.402C220.96 574.813 221.07 575.172 221.29 575.48C221.51 575.773 221.811 576.008 222.192 576.184C222.574 576.345 222.999 576.426 223.468 576.426ZM223.468 569.716C223.879 569.716 224.253 569.643 224.59 569.496C224.928 569.335 225.192 569.129 225.382 568.88C225.573 568.616 225.668 568.308 225.668 567.956C225.668 567.604 225.573 567.296 225.382 567.032C225.206 566.768 224.95 566.563 224.612 566.416C224.275 566.269 223.894 566.196 223.468 566.196C223.043 566.196 222.662 566.269 222.324 566.416C221.987 566.563 221.723 566.768 221.532 567.032C221.356 567.296 221.268 567.604 221.268 567.956C221.268 568.308 221.356 568.616 221.532 568.88C221.723 569.144 221.987 569.349 222.324 569.496C222.662 569.643 223.043 569.716 223.468 569.716ZM209.676 607.22C208.62 607.22 207.703 607.073 206.926 606.78C206.148 606.472 205.503 606.054 204.99 605.526C204.491 604.998 204.11 604.382 203.846 603.678C203.582 602.974 203.428 602.219 203.384 601.412C203.369 601.016 203.354 600.569 203.34 600.07C203.34 599.557 203.34 599.043 203.34 598.53C203.354 598.002 203.369 597.533 203.384 597.122C203.428 596.315 203.582 595.567 203.846 594.878C204.124 594.174 204.52 593.565 205.034 593.052C205.562 592.524 206.207 592.113 206.97 591.82C207.747 591.527 208.649 591.38 209.676 591.38C210.717 591.38 211.619 591.527 212.382 591.82C213.144 592.113 213.782 592.524 214.296 593.052C214.824 593.565 215.227 594.174 215.506 594.878C215.784 595.567 215.938 596.315 215.968 597.122C215.997 597.533 216.012 598.002 216.012 598.53C216.026 599.043 216.026 599.557 216.012 600.07C216.012 600.569 215.997 601.016 215.968 601.412C215.938 602.219 215.784 602.974 215.506 603.678C215.242 604.382 214.853 604.998 214.34 605.526C213.841 606.054 213.203 606.472 212.426 606.78C211.663 607.073 210.746 607.22 209.676 607.22ZM209.676 604.03C210.438 604.03 210.988 603.788 211.326 603.304C211.678 602.805 211.861 602.138 211.876 601.302C211.905 600.877 211.92 600.429 211.92 599.96C211.934 599.491 211.934 599.021 211.92 598.552C211.92 598.083 211.905 597.65 211.876 597.254C211.861 596.447 211.678 595.795 211.326 595.296C210.988 594.797 210.438 594.541 209.676 594.526C208.913 594.541 208.363 594.797 208.026 595.296C207.688 595.795 207.505 596.447 207.476 597.254C207.461 597.65 207.446 598.083 207.432 598.552C207.432 599.021 207.432 599.491 207.432 599.96C207.446 600.429 207.461 600.877 207.476 601.302C207.505 602.138 207.696 602.805 208.048 603.304C208.4 603.788 208.942 604.03 209.676 604.03ZM220.273 607C220.141 607 220.031 606.956 219.943 606.868C219.855 606.765 219.811 606.648 219.811 606.516C219.811 606.457 219.826 606.391 219.855 606.318L224.937 594.922H218.337C218.19 594.922 218.058 594.871 217.941 594.768C217.838 594.651 217.787 594.511 217.787 594.35V592.15C217.787 591.989 217.838 591.857 217.941 591.754C218.058 591.651 218.19 591.6 218.337 591.6H228.633C228.809 591.6 228.948 591.651 229.051 591.754C229.154 591.857 229.205 591.989 229.205 592.15V594.108C229.205 594.328 229.183 594.511 229.139 594.658C229.095 594.805 229.036 594.951 228.963 595.098L223.881 606.472C223.837 606.56 223.756 606.67 223.639 606.802C223.522 606.934 223.346 607 223.111 607H220.273ZM208.816 635.22C207.76 635.22 206.844 635.073 206.066 634.78C205.289 634.472 204.644 634.054 204.13 633.526C203.632 632.998 203.25 632.382 202.986 631.678C202.722 630.974 202.568 630.219 202.524 629.412C202.51 629.016 202.495 628.569 202.48 628.07C202.48 627.557 202.48 627.043 202.48 626.53C202.495 626.002 202.51 625.533 202.524 625.122C202.568 624.315 202.722 623.567 202.986 622.878C203.265 622.174 203.661 621.565 204.174 621.052C204.702 620.524 205.348 620.113 206.11 619.82C206.888 619.527 207.79 619.38 208.816 619.38C209.858 619.38 210.76 619.527 211.522 619.82C212.285 620.113 212.923 620.524 213.436 621.052C213.964 621.565 214.368 622.174 214.646 622.878C214.925 623.567 215.079 624.315 215.108 625.122C215.138 625.533 215.152 626.002 215.152 626.53C215.167 627.043 215.167 627.557 215.152 628.07C215.152 628.569 215.138 629.016 215.108 629.412C215.079 630.219 214.925 630.974 214.646 631.678C214.382 632.382 213.994 632.998 213.48 633.526C212.982 634.054 212.344 634.472 211.566 634.78C210.804 635.073 209.887 635.22 208.816 635.22ZM208.816 632.03C209.579 632.03 210.129 631.788 210.466 631.304C210.818 630.805 211.002 630.138 211.016 629.302C211.046 628.877 211.06 628.429 211.06 627.96C211.075 627.491 211.075 627.021 211.06 626.552C211.06 626.083 211.046 625.65 211.016 625.254C211.002 624.447 210.818 623.795 210.466 623.296C210.129 622.797 209.579 622.541 208.816 622.526C208.054 622.541 207.504 622.797 207.166 623.296C206.829 623.795 206.646 624.447 206.616 625.254C206.602 625.65 206.587 626.083 206.572 626.552C206.572 627.021 206.572 627.491 206.572 627.96C206.587 628.429 206.602 628.877 206.616 629.302C206.646 630.138 206.836 630.805 207.188 631.304C207.54 631.788 208.083 632.03 208.816 632.03ZM223.572 635.22C222.281 635.22 221.144 634.985 220.162 634.516C219.179 634.047 218.409 633.401 217.852 632.58C217.309 631.744 217.038 630.791 217.038 629.72C217.038 629.265 217.104 628.818 217.236 628.378C217.382 627.923 217.558 627.498 217.764 627.102C217.969 626.691 218.174 626.332 218.38 626.024C218.585 625.701 218.754 625.445 218.886 625.254L222.758 620.04C222.831 619.967 222.926 619.879 223.044 619.776C223.161 619.659 223.33 619.6 223.55 619.6H226.476C226.608 619.6 226.718 619.651 226.806 619.754C226.894 619.842 226.938 619.952 226.938 620.084C226.938 620.143 226.93 620.201 226.916 620.26C226.901 620.304 226.879 620.341 226.85 620.37L223.88 624.418C223.968 624.389 224.07 624.374 224.188 624.374C224.32 624.359 224.437 624.352 224.54 624.352C225.2 624.381 225.852 624.528 226.498 624.792C227.143 625.056 227.73 625.415 228.258 625.87C228.786 626.325 229.204 626.875 229.512 627.52C229.834 628.151 229.996 628.862 229.996 629.654C229.996 630.666 229.732 631.597 229.204 632.448C228.676 633.284 227.928 633.959 226.96 634.472C226.006 634.971 224.877 635.22 223.572 635.22ZM223.55 632.052C223.975 632.052 224.371 631.964 224.738 631.788C225.104 631.597 225.398 631.333 225.618 630.996C225.852 630.644 225.97 630.211 225.97 629.698C225.97 629.185 225.86 628.759 225.64 628.422C225.42 628.07 225.126 627.806 224.76 627.63C224.393 627.454 223.99 627.366 223.55 627.366C223.11 627.366 222.699 627.454 222.318 627.63C221.951 627.806 221.658 628.07 221.438 628.422C221.218 628.759 221.108 629.185 221.108 629.698C221.108 630.211 221.218 630.644 221.438 630.996C221.672 631.333 221.973 631.597 222.34 631.788C222.706 631.964 223.11 632.052 223.55 632.052Z" fill="#668AA7"/>
<path d="M208.87 663.22C207.814 663.22 206.897 663.073 206.12 662.78C205.343 662.472 204.697 662.054 204.184 661.526C203.685 660.998 203.304 660.382 203.04 659.678C202.776 658.974 202.622 658.219 202.578 657.412C202.563 657.016 202.549 656.569 202.534 656.07C202.534 655.557 202.534 655.043 202.534 654.53C202.549 654.002 202.563 653.533 202.578 653.122C202.622 652.315 202.776 651.567 203.04 650.878C203.319 650.174 203.715 649.565 204.228 649.052C204.756 648.524 205.401 648.113 206.164 647.82C206.941 647.527 207.843 647.38 208.87 647.38C209.911 647.38 210.813 647.527 211.576 647.82C212.339 648.113 212.977 648.524 213.49 649.052C214.018 649.565 214.421 650.174 214.7 650.878C214.979 651.567 215.133 652.315 215.162 653.122C215.191 653.533 215.206 654.002 215.206 654.53C215.221 655.043 215.221 655.557 215.206 656.07C215.206 656.569 215.191 657.016 215.162 657.412C215.133 658.219 214.979 658.974 214.7 659.678C214.436 660.382 214.047 660.998 213.534 661.526C213.035 662.054 212.397 662.472 211.62 662.78C210.857 663.073 209.941 663.22 208.87 663.22ZM208.87 660.03C209.633 660.03 210.183 659.788 210.52 659.304C210.872 658.805 211.055 658.138 211.07 657.302C211.099 656.877 211.114 656.429 211.114 655.96C211.129 655.491 211.129 655.021 211.114 654.552C211.114 654.083 211.099 653.65 211.07 653.254C211.055 652.447 210.872 651.795 210.52 651.296C210.183 650.797 209.633 650.541 208.87 650.526C208.107 650.541 207.557 650.797 207.22 651.296C206.883 651.795 206.699 652.447 206.67 653.254C206.655 653.65 206.641 654.083 206.626 654.552C206.626 655.021 206.626 655.491 206.626 655.96C206.641 656.429 206.655 656.877 206.67 657.302C206.699 658.138 206.89 658.805 207.242 659.304C207.594 659.788 208.137 660.03 208.87 660.03ZM223.405 663.242C222.027 663.242 220.875 663.029 219.951 662.604C219.027 662.164 218.323 661.599 217.839 660.91C217.37 660.206 217.121 659.451 217.091 658.644C217.091 658.512 217.135 658.402 217.223 658.314C217.311 658.226 217.421 658.182 217.553 658.182H220.501C220.692 658.182 220.839 658.226 220.941 658.314C221.059 658.387 221.147 658.483 221.205 658.6C221.337 658.937 221.506 659.216 221.711 659.436C221.931 659.656 222.181 659.817 222.459 659.92C222.753 660.023 223.075 660.074 223.427 660.074C223.838 660.074 224.219 659.986 224.571 659.81C224.923 659.634 225.202 659.377 225.407 659.04C225.627 658.688 225.737 658.27 225.737 657.786C225.737 657.346 225.635 656.965 225.429 656.642C225.239 656.319 224.967 656.063 224.615 655.872C224.263 655.681 223.867 655.586 223.427 655.586C223.075 655.586 222.789 655.63 222.569 655.718C222.349 655.791 222.166 655.887 222.019 656.004C221.873 656.121 221.741 656.224 221.623 656.312C221.506 656.385 221.374 656.422 221.227 656.422H218.345C218.213 656.422 218.096 656.378 217.993 656.29C217.905 656.187 217.861 656.07 217.861 655.938L218.653 648.26C218.683 648.04 218.763 647.879 218.895 647.776C219.027 647.659 219.189 647.6 219.379 647.6H228.201C228.363 647.6 228.495 647.651 228.597 647.754C228.7 647.857 228.751 647.989 228.751 648.15V650.218C228.751 650.379 228.7 650.511 228.597 650.614C228.495 650.717 228.363 650.768 228.201 650.768H221.821L221.535 653.628C221.858 653.408 222.232 653.232 222.657 653.1C223.097 652.953 223.691 652.88 224.439 652.88C225.143 652.88 225.811 652.997 226.441 653.232C227.087 653.467 227.659 653.804 228.157 654.244C228.671 654.684 229.067 655.212 229.345 655.828C229.639 656.429 229.785 657.111 229.785 657.874C229.785 658.915 229.529 659.839 229.015 660.646C228.517 661.453 227.791 662.091 226.837 662.56C225.884 663.015 224.74 663.242 223.405 663.242Z" fill="#FE3D6A"/>
</g>
<path d="M181.747 215C181.654 215 181.575 214.972 181.509 214.916C181.453 214.851 181.425 214.771 181.425 214.678V206.446H178.737C178.644 206.446 178.565 206.418 178.499 206.362C178.443 206.297 178.415 206.217 178.415 206.124V205.536C178.415 205.433 178.443 205.354 178.499 205.298C178.565 205.233 178.644 205.2 178.737 205.2H185.485C185.588 205.2 185.667 205.233 185.723 205.298C185.789 205.354 185.821 205.433 185.821 205.536V206.124C185.821 206.217 185.789 206.297 185.723 206.362C185.667 206.418 185.588 206.446 185.485 206.446H182.811V214.678C182.811 214.771 182.779 214.851 182.713 214.916C182.657 214.972 182.578 215 182.475 215H181.747ZM187.49 215C187.397 215 187.317 214.972 187.252 214.916C187.196 214.851 187.168 214.771 187.168 214.678V208.042C187.168 207.949 187.196 207.874 187.252 207.818C187.317 207.753 187.397 207.72 187.49 207.72H188.162C188.255 207.72 188.33 207.753 188.386 207.818C188.442 207.874 188.47 207.949 188.47 208.042V214.678C188.47 214.771 188.442 214.851 188.386 214.916C188.33 214.972 188.255 215 188.162 215H187.49ZM187.378 206.362C187.285 206.362 187.205 206.334 187.14 206.278C187.084 206.213 187.056 206.133 187.056 206.04V205.284C187.056 205.191 187.084 205.116 187.14 205.06C187.205 204.995 187.285 204.962 187.378 204.962H188.26C188.353 204.962 188.428 204.995 188.484 205.06C188.549 205.116 188.582 205.191 188.582 205.284V206.04C188.582 206.133 188.549 206.213 188.484 206.278C188.428 206.334 188.353 206.362 188.26 206.362H187.378ZM191.017 215C190.924 215 190.845 214.972 190.779 214.916C190.723 214.851 190.695 214.771 190.695 214.678V208.042C190.695 207.949 190.723 207.874 190.779 207.818C190.845 207.753 190.924 207.72 191.017 207.72H191.647C191.741 207.72 191.815 207.753 191.871 207.818C191.937 207.874 191.969 207.949 191.969 208.042V208.532C192.184 208.243 192.455 208.014 192.781 207.846C193.108 207.669 193.5 207.58 193.957 207.58C195.012 207.571 195.759 208 196.197 208.868C196.412 208.476 196.725 208.163 197.135 207.93C197.546 207.697 198.013 207.58 198.535 207.58C199.021 207.58 199.459 207.692 199.851 207.916C200.253 208.14 200.565 208.481 200.789 208.938C201.023 209.386 201.139 209.951 201.139 210.632V214.678C201.139 214.771 201.107 214.851 201.041 214.916C200.985 214.972 200.911 215 200.817 215H200.159C200.066 215 199.987 214.972 199.921 214.916C199.865 214.851 199.837 214.771 199.837 214.678V210.758C199.837 210.235 199.763 209.825 199.613 209.526C199.464 209.227 199.263 209.017 199.011 208.896C198.759 208.775 198.484 208.714 198.185 208.714C197.943 208.714 197.695 208.775 197.443 208.896C197.191 209.017 196.981 209.227 196.813 209.526C196.655 209.825 196.575 210.235 196.575 210.758V214.678C196.575 214.771 196.543 214.851 196.477 214.916C196.421 214.972 196.347 215 196.253 215H195.595C195.502 215 195.423 214.972 195.357 214.916C195.301 214.851 195.273 214.771 195.273 214.678V210.758C195.273 210.235 195.194 209.825 195.035 209.526C194.877 209.227 194.671 209.017 194.419 208.896C194.167 208.775 193.901 208.714 193.621 208.714C193.379 208.714 193.131 208.775 192.879 208.896C192.627 209.017 192.417 209.227 192.249 209.526C192.091 209.825 192.011 210.231 192.011 210.744V214.678C192.011 214.771 191.979 214.851 191.913 214.916C191.857 214.972 191.783 215 191.689 215H191.017ZM206.035 215.14C205.073 215.14 204.308 214.846 203.739 214.258C203.169 213.661 202.857 212.849 202.801 211.822C202.791 211.701 202.787 211.547 202.787 211.36C202.787 211.164 202.791 211.005 202.801 210.884C202.838 210.221 202.992 209.643 203.263 209.148C203.533 208.644 203.902 208.257 204.369 207.986C204.845 207.715 205.4 207.58 206.035 207.58C206.744 207.58 207.337 207.729 207.813 208.028C208.298 208.327 208.667 208.751 208.919 209.302C209.171 209.853 209.297 210.497 209.297 211.234V211.472C209.297 211.575 209.264 211.654 209.199 211.71C209.143 211.766 209.068 211.794 208.975 211.794H204.131C204.131 211.803 204.131 211.822 204.131 211.85C204.131 211.878 204.131 211.901 204.131 211.92C204.149 212.303 204.233 212.662 204.383 212.998C204.532 213.325 204.747 213.591 205.027 213.796C205.307 214.001 205.643 214.104 206.035 214.104C206.371 214.104 206.651 214.053 206.875 213.95C207.099 213.847 207.281 213.735 207.421 213.614C207.561 213.483 207.654 213.385 207.701 213.32C207.785 213.199 207.85 213.129 207.897 213.11C207.943 213.082 208.018 213.068 208.121 213.068H208.793C208.886 213.068 208.961 213.096 209.017 213.152C209.082 213.199 209.11 213.269 209.101 213.362C209.091 213.502 209.017 213.675 208.877 213.88C208.737 214.076 208.536 214.272 208.275 214.468C208.013 214.664 207.696 214.827 207.323 214.958C206.949 215.079 206.52 215.14 206.035 215.14ZM204.131 210.828H207.967V210.786C207.967 210.366 207.887 209.993 207.729 209.666C207.579 209.339 207.36 209.083 207.071 208.896C206.781 208.7 206.436 208.602 206.035 208.602C205.633 208.602 205.288 208.7 204.999 208.896C204.719 209.083 204.504 209.339 204.355 209.666C204.205 209.993 204.131 210.366 204.131 210.786V210.828Z" fill="#668AA7"/>
<circle cx="55" cy="419" r="33" fill="#FE3D6A"/>
<circle cx="55" cy="419" r="33" fill="white" fill-opacity="0.4"/>
<circle cx="55" cy="326" r="33" fill="#A3B9CA"/>
<circle cx="55" cy="326" r="17" fill="#FE3D6A"/>
<circle cx="55" cy="512" r="33" fill="#A3B9CA"/>
<circle cx="55" cy="605" r="33" fill="#A3B9CA"/>
<circle cx="148" cy="326" r="33" fill="#FE3D6A"/>
<circle cx="148" cy="326" r="33" fill="white" fill-opacity="0.4"/>
<circle cx="148" cy="419" r="33" fill="#A3B9CA"/>
<circle cx="148" cy="512" r="33" fill="#A3B9CA"/>
<circle cx="148" cy="605" r="33" fill="#A3B9CA"/>
<circle cx="241" cy="326" r="33" fill="#A3B9CA"/>
<circle cx="241" cy="419" r="33" fill="#A3B9CA"/>
<circle cx="241" cy="512" r="33" fill="#A3B9CA"/>
<circle cx="241" cy="605" r="33" fill="#A3B9CA"/>
<circle cx="334" cy="326" r="33" fill="#A3B9CA"/>
<circle cx="334" cy="419" r="33" fill="#A3B9CA"/>
<circle cx="334" cy="512" r="33" fill="#A3B9CA"/>
<circle cx="334" cy="605" r="33" fill="#A3B9CA"/>
<rect x="120" y="686" width="154" height="44" rx="8" fill="#FE3D6A"/>
<path d="M179.255 712C179.175 712 179.107 711.972 179.051 711.916C178.995 711.86 178.967 711.792 178.967 711.712V703.9C178.967 703.812 178.995 703.74 179.051 703.684C179.107 703.628 179.175 703.6 179.255 703.6H182.363C183.331 703.6 184.095 703.824 184.655 704.272C185.215 704.72 185.495 705.372 185.495 706.228C185.495 706.82 185.347 707.312 185.051 707.704C184.763 708.096 184.375 708.38 183.887 708.556L185.639 711.616C185.663 711.664 185.675 711.708 185.675 711.748C185.675 711.82 185.647 711.88 185.591 711.928C185.543 711.976 185.487 712 185.423 712H184.331C184.195 712 184.091 711.964 184.019 711.892C183.947 711.82 183.891 711.748 183.851 711.676L182.303 708.832H180.635V711.712C180.635 711.792 180.607 711.86 180.551 711.916C180.503 711.972 180.435 712 180.347 712H179.255ZM180.635 707.476H182.327C182.815 707.476 183.179 707.368 183.419 707.152C183.659 706.928 183.779 706.616 183.779 706.216C183.779 705.816 183.659 705.504 183.419 705.28C183.187 705.048 182.823 704.932 182.327 704.932H180.635V707.476ZM187.329 712C187.249 712 187.181 711.972 187.125 711.916C187.069 711.86 187.041 711.792 187.041 711.712V703.9C187.041 703.812 187.069 703.74 187.125 703.684C187.181 703.628 187.249 703.6 187.329 703.6H192.609C192.697 703.6 192.769 703.628 192.825 703.684C192.881 703.74 192.909 703.812 192.909 703.9V704.692C192.909 704.772 192.881 704.84 192.825 704.896C192.769 704.952 192.697 704.98 192.609 704.98H188.661V707.104H192.345C192.433 707.104 192.505 707.132 192.561 707.188C192.617 707.236 192.645 707.304 192.645 707.392V708.136C192.645 708.224 192.617 708.296 192.561 708.352C192.505 708.4 192.433 708.424 192.345 708.424H188.661V710.62H192.705C192.793 710.62 192.865 710.648 192.921 710.704C192.977 710.76 193.005 710.832 193.005 710.92V711.712C193.005 711.792 192.977 711.86 192.921 711.916C192.865 711.972 192.793 712 192.705 712H187.329ZM197.422 712.12C196.678 712.12 196.054 712.012 195.55 711.796C195.054 711.572 194.674 711.284 194.41 710.932C194.154 710.572 194.018 710.196 194.002 709.804C194.002 709.732 194.026 709.672 194.074 709.624C194.122 709.576 194.182 709.552 194.254 709.552H195.322C195.426 709.552 195.502 709.576 195.55 709.624C195.606 709.664 195.654 709.716 195.694 709.78C195.742 709.932 195.834 710.084 195.97 710.236C196.106 710.38 196.29 710.5 196.522 710.596C196.762 710.692 197.062 710.74 197.422 710.74C197.998 710.74 198.426 710.644 198.706 710.452C198.994 710.26 199.138 710 199.138 709.672C199.138 709.44 199.062 709.256 198.91 709.12C198.758 708.976 198.522 708.848 198.202 708.736C197.89 708.616 197.474 708.492 196.954 708.364C196.354 708.22 195.85 708.048 195.442 707.848C195.042 707.64 194.738 707.38 194.53 707.068C194.33 706.756 194.23 706.36 194.23 705.88C194.23 705.416 194.354 705.004 194.602 704.644C194.858 704.284 195.218 704 195.682 703.792C196.154 703.584 196.714 703.48 197.362 703.48C197.882 703.48 198.342 703.552 198.742 703.696C199.142 703.832 199.474 704.016 199.738 704.248C200.002 704.472 200.202 704.716 200.338 704.98C200.482 705.236 200.558 705.488 200.566 705.736C200.566 705.8 200.542 705.86 200.494 705.916C200.454 705.964 200.394 705.988 200.314 705.988H199.198C199.134 705.988 199.07 705.972 199.006 705.94C198.942 705.908 198.89 705.848 198.85 705.76C198.802 705.512 198.646 705.3 198.382 705.124C198.118 704.948 197.778 704.86 197.362 704.86C196.93 704.86 196.582 704.94 196.318 705.1C196.054 705.26 195.922 705.508 195.922 705.844C195.922 706.068 195.986 706.256 196.114 706.408C196.25 706.552 196.462 706.68 196.75 706.792C197.046 706.904 197.434 707.024 197.914 707.152C198.594 707.304 199.15 707.48 199.582 707.68C200.014 707.88 200.33 708.136 200.53 708.448C200.73 708.752 200.83 709.14 200.83 709.612C200.83 710.14 200.686 710.592 200.398 710.968C200.118 711.336 199.722 711.62 199.21 711.82C198.698 712.02 198.102 712.12 197.422 712.12ZM202.494 712C202.414 712 202.346 711.972 202.29 711.916C202.234 711.86 202.206 711.792 202.206 711.712V703.9C202.206 703.812 202.234 703.74 202.29 703.684C202.346 703.628 202.414 703.6 202.494 703.6H207.774C207.862 703.6 207.934 703.628 207.99 703.684C208.046 703.74 208.074 703.812 208.074 703.9V704.692C208.074 704.772 208.046 704.84 207.99 704.896C207.934 704.952 207.862 704.98 207.774 704.98H203.826V707.104H207.51C207.598 707.104 207.67 707.132 207.726 707.188C207.782 707.236 207.81 707.304 207.81 707.392V708.136C207.81 708.224 207.782 708.296 207.726 708.352C207.67 708.4 207.598 708.424 207.51 708.424H203.826V710.62H207.87C207.958 710.62 208.03 710.648 208.086 710.704C208.142 710.76 208.17 710.832 208.17 710.92V711.712C208.17 711.792 208.142 711.86 208.086 711.916C208.03 711.972 207.958 712 207.87 712H202.494ZM211.806 712C211.726 712 211.658 711.972 211.602 711.916C211.546 711.86 211.518 711.792 211.518 711.712V705.076H209.298C209.218 705.076 209.15 705.048 209.094 704.992C209.038 704.936 209.01 704.868 209.01 704.788V703.9C209.01 703.812 209.038 703.74 209.094 703.684C209.15 703.628 209.218 703.6 209.298 703.6H215.418C215.506 703.6 215.578 703.628 215.634 703.684C215.69 703.74 215.718 703.812 215.718 703.9V704.788C215.718 704.868 215.69 704.936 215.634 704.992C215.578 705.048 215.506 705.076 215.418 705.076H213.21V711.712C213.21 711.792 213.182 711.86 213.126 711.916C213.07 711.972 212.998 712 212.91 712H211.806Z" fill="white"/>
<path d="M154.766 116.14C153.945 116.14 153.245 115.986 152.666 115.678C152.097 115.37 151.658 114.936 151.35 114.376C151.052 113.816 150.884 113.158 150.846 112.402C150.837 111.991 150.832 111.557 150.832 111.1C150.832 110.633 150.837 110.19 150.846 109.77C150.884 109.014 151.052 108.361 151.35 107.81C151.658 107.259 152.102 106.83 152.68 106.522C153.259 106.214 153.954 106.06 154.766 106.06C155.429 106.06 156.003 106.153 156.488 106.34C156.974 106.527 157.37 106.765 157.678 107.054C157.996 107.334 158.229 107.628 158.378 107.936C158.537 108.244 158.621 108.515 158.63 108.748C158.64 108.832 158.616 108.902 158.56 108.958C158.504 109.005 158.43 109.028 158.336 109.028H157.51C157.417 109.028 157.347 109.009 157.3 108.972C157.263 108.935 157.226 108.869 157.188 108.776C157.104 108.533 156.964 108.295 156.768 108.062C156.582 107.829 156.325 107.637 155.998 107.488C155.681 107.329 155.27 107.25 154.766 107.25C154.029 107.25 153.432 107.451 152.974 107.852C152.526 108.253 152.284 108.916 152.246 109.84C152.218 110.671 152.218 111.501 152.246 112.332C152.284 113.265 152.531 113.937 152.988 114.348C153.446 114.749 154.043 114.95 154.78 114.95C155.275 114.95 155.714 114.861 156.096 114.684C156.488 114.497 156.796 114.213 157.02 113.83C157.244 113.447 157.356 112.962 157.356 112.374V111.786H155.256C155.163 111.786 155.084 111.758 155.018 111.702C154.962 111.637 154.934 111.553 154.934 111.45V111.002C154.934 110.899 154.962 110.82 155.018 110.764C155.084 110.699 155.163 110.666 155.256 110.666H158.42C158.523 110.666 158.602 110.699 158.658 110.764C158.714 110.82 158.742 110.899 158.742 111.002V112.346C158.742 113.111 158.584 113.779 158.266 114.348C157.958 114.917 157.506 115.361 156.908 115.678C156.311 115.986 155.597 116.14 154.766 116.14ZM159.89 116C159.815 116 159.75 115.972 159.694 115.916C159.638 115.86 159.61 115.795 159.61 115.72C159.61 115.673 159.615 115.622 159.624 115.566L163.096 106.508C163.133 106.415 163.185 106.34 163.25 106.284C163.315 106.228 163.413 106.2 163.544 106.2H164.496C164.617 106.2 164.711 106.228 164.776 106.284C164.851 106.34 164.907 106.415 164.944 106.508L168.402 115.566C168.421 115.622 168.43 115.673 168.43 115.72C168.43 115.795 168.402 115.86 168.346 115.916C168.29 115.972 168.225 116 168.15 116H167.436C167.324 116 167.24 115.972 167.184 115.916C167.137 115.86 167.105 115.809 167.086 115.762L166.316 113.774H161.724L160.954 115.762C160.945 115.809 160.912 115.86 160.856 115.916C160.8 115.972 160.716 116 160.604 116H159.89ZM162.13 112.57H165.91L164.02 107.6L162.13 112.57ZM170.249 116C170.156 116 170.076 115.972 170.011 115.916C169.955 115.851 169.927 115.771 169.927 115.678V106.536C169.927 106.433 169.955 106.354 170.011 106.298C170.076 106.233 170.156 106.2 170.249 106.2H170.949C171.061 106.2 171.145 106.228 171.201 106.284C171.257 106.34 171.29 106.387 171.299 106.424L174.267 112.08L177.249 106.424C177.268 106.387 177.3 106.34 177.347 106.284C177.403 106.228 177.487 106.2 177.599 106.2H178.285C178.388 106.2 178.467 106.233 178.523 106.298C178.588 106.354 178.621 106.433 178.621 106.536V115.678C178.621 115.771 178.588 115.851 178.523 115.916C178.467 115.972 178.388 116 178.285 116H177.599C177.506 116 177.426 115.972 177.361 115.916C177.305 115.851 177.277 115.771 177.277 115.678V108.79L174.939 113.354C174.902 113.447 174.846 113.522 174.771 113.578C174.696 113.625 174.603 113.648 174.491 113.648H174.057C173.936 113.648 173.838 113.625 173.763 113.578C173.698 113.522 173.642 113.447 173.595 113.354L171.257 108.79V115.678C171.257 115.771 171.224 115.851 171.159 115.916C171.103 115.972 171.028 116 170.935 116H170.249ZM181.364 116C181.262 116 181.182 115.972 181.126 115.916C181.07 115.851 181.042 115.771 181.042 115.678V106.536C181.042 106.433 181.07 106.354 181.126 106.298C181.182 106.233 181.262 106.2 181.364 106.2H187.146C187.249 106.2 187.328 106.233 187.384 106.298C187.44 106.354 187.468 106.433 187.468 106.536V107.068C187.468 107.171 187.44 107.25 187.384 107.306C187.328 107.362 187.249 107.39 187.146 107.39H182.386V110.456H186.838C186.941 110.456 187.02 110.489 187.076 110.554C187.132 110.61 187.16 110.689 187.16 110.792V111.31C187.16 111.403 187.132 111.483 187.076 111.548C187.02 111.604 186.941 111.632 186.838 111.632H182.386V114.81H187.258C187.361 114.81 187.44 114.838 187.496 114.894C187.552 114.95 187.58 115.029 187.58 115.132V115.678C187.58 115.771 187.552 115.851 187.496 115.916C187.44 115.972 187.361 116 187.258 116H181.364ZM196.114 116.14C195.302 116.14 194.621 116.019 194.07 115.776C193.519 115.524 193.095 115.202 192.796 114.81C192.507 114.409 192.353 113.984 192.334 113.536C192.334 113.461 192.362 113.396 192.418 113.34C192.483 113.275 192.558 113.242 192.642 113.242H193.356C193.468 113.242 193.552 113.27 193.608 113.326C193.664 113.382 193.701 113.447 193.72 113.522C193.767 113.746 193.879 113.97 194.056 114.194C194.243 114.409 194.499 114.591 194.826 114.74C195.162 114.88 195.591 114.95 196.114 114.95C196.917 114.95 197.505 114.81 197.878 114.53C198.261 114.241 198.452 113.858 198.452 113.382C198.452 113.055 198.349 112.794 198.144 112.598C197.948 112.393 197.645 112.211 197.234 112.052C196.823 111.893 196.291 111.721 195.638 111.534C194.957 111.338 194.392 111.123 193.944 110.89C193.496 110.657 193.16 110.367 192.936 110.022C192.721 109.677 192.614 109.238 192.614 108.706C192.614 108.202 192.749 107.754 193.02 107.362C193.291 106.961 193.678 106.643 194.182 106.41C194.695 106.177 195.316 106.06 196.044 106.06C196.623 106.06 197.127 106.139 197.556 106.298C197.995 106.447 198.359 106.653 198.648 106.914C198.937 107.166 199.157 107.441 199.306 107.74C199.455 108.029 199.535 108.314 199.544 108.594C199.544 108.659 199.521 108.725 199.474 108.79C199.427 108.846 199.353 108.874 199.25 108.874H198.508C198.443 108.874 198.373 108.855 198.298 108.818C198.233 108.781 198.181 108.711 198.144 108.608C198.088 108.225 197.873 107.903 197.5 107.642C197.127 107.381 196.641 107.25 196.044 107.25C195.437 107.25 194.943 107.367 194.56 107.6C194.187 107.833 194 108.197 194 108.692C194 109.009 194.089 109.275 194.266 109.49C194.443 109.695 194.723 109.877 195.106 110.036C195.489 110.195 195.988 110.363 196.604 110.54C197.351 110.745 197.962 110.965 198.438 111.198C198.914 111.422 199.264 111.707 199.488 112.052C199.721 112.388 199.838 112.822 199.838 113.354C199.838 113.942 199.684 114.446 199.376 114.866C199.068 115.277 198.634 115.594 198.074 115.818C197.523 116.033 196.87 116.14 196.114 116.14ZM205.201 116.14C204.342 116.14 203.628 115.981 203.059 115.664C202.499 115.347 202.074 114.903 201.785 114.334C201.496 113.765 201.337 113.102 201.309 112.346C201.3 111.963 201.295 111.553 201.295 111.114C201.295 110.675 201.3 110.255 201.309 109.854C201.337 109.098 201.496 108.435 201.785 107.866C202.074 107.297 202.499 106.853 203.059 106.536C203.628 106.219 204.342 106.06 205.201 106.06C205.845 106.06 206.41 106.149 206.895 106.326C207.38 106.503 207.782 106.741 208.099 107.04C208.426 107.339 208.673 107.675 208.841 108.048C209.009 108.412 209.102 108.79 209.121 109.182C209.13 109.266 209.102 109.336 209.037 109.392C208.981 109.448 208.911 109.476 208.827 109.476H208.057C207.973 109.476 207.898 109.453 207.833 109.406C207.777 109.359 207.735 109.275 207.707 109.154C207.548 108.426 207.25 107.927 206.811 107.656C206.382 107.385 205.84 107.25 205.187 107.25C204.44 107.25 203.848 107.465 203.409 107.894C202.97 108.314 202.732 108.991 202.695 109.924C202.667 110.689 202.667 111.473 202.695 112.276C202.732 113.209 202.97 113.891 203.409 114.32C203.848 114.74 204.44 114.95 205.187 114.95C205.84 114.95 206.382 114.815 206.811 114.544C207.25 114.273 207.548 113.774 207.707 113.046C207.735 112.925 207.777 112.841 207.833 112.794C207.898 112.747 207.973 112.724 208.057 112.724H208.827C208.911 112.724 208.981 112.752 209.037 112.808C209.102 112.864 209.13 112.934 209.121 113.018C209.102 113.41 209.009 113.793 208.841 114.166C208.673 114.53 208.426 114.861 208.099 115.16C207.782 115.459 207.38 115.697 206.895 115.874C206.41 116.051 205.845 116.14 205.201 116.14ZM214.511 116.14C213.718 116.14 213.037 116.005 212.467 115.734C211.898 115.454 211.459 115.029 211.151 114.46C210.843 113.881 210.671 113.158 210.633 112.29C210.624 111.879 210.619 111.487 210.619 111.114C210.619 110.731 210.624 110.335 210.633 109.924C210.671 109.065 210.848 108.351 211.165 107.782C211.492 107.203 211.94 106.774 212.509 106.494C213.088 106.205 213.755 106.06 214.511 106.06C215.277 106.06 215.944 106.205 216.513 106.494C217.092 106.774 217.545 107.203 217.871 107.782C218.198 108.351 218.375 109.065 218.403 109.924C218.422 110.335 218.431 110.731 218.431 111.114C218.431 111.487 218.422 111.879 218.403 112.29C218.375 113.158 218.203 113.881 217.885 114.46C217.577 115.029 217.139 115.454 216.569 115.734C216 116.005 215.314 116.14 214.511 116.14ZM214.511 114.95C215.23 114.95 215.813 114.735 216.261 114.306C216.719 113.877 216.966 113.181 217.003 112.22C217.022 111.8 217.031 111.427 217.031 111.1C217.031 110.764 217.022 110.391 217.003 109.98C216.985 109.336 216.863 108.813 216.639 108.412C216.425 108.011 216.135 107.717 215.771 107.53C215.407 107.343 214.987 107.25 214.511 107.25C214.054 107.25 213.643 107.343 213.279 107.53C212.915 107.717 212.621 108.011 212.397 108.412C212.183 108.813 212.061 109.336 212.033 109.98C212.024 110.391 212.019 110.764 212.019 111.1C212.019 111.427 212.024 111.8 212.033 112.22C212.071 113.181 212.318 113.877 212.775 114.306C213.233 114.735 213.811 114.95 214.511 114.95ZM220.794 116C220.691 116 220.612 115.972 220.556 115.916C220.5 115.851 220.472 115.771 220.472 115.678V106.536C220.472 106.433 220.5 106.354 220.556 106.298C220.612 106.233 220.691 106.2 220.794 106.2H224.21C225.265 106.2 226.1 106.447 226.716 106.942C227.332 107.437 227.64 108.169 227.64 109.14C227.64 109.859 227.458 110.447 227.094 110.904C226.739 111.352 226.254 111.665 225.638 111.842L227.794 115.566C227.822 115.622 227.836 115.673 227.836 115.72C227.836 115.795 227.803 115.86 227.738 115.916C227.682 115.972 227.617 116 227.542 116H226.87C226.711 116 226.595 115.958 226.52 115.874C226.445 115.79 226.38 115.706 226.324 115.622L224.294 112.066H221.844V115.678C221.844 115.771 221.811 115.851 221.746 115.916C221.69 115.972 221.611 116 221.508 116H220.794ZM221.844 110.876H224.154C224.854 110.876 225.377 110.731 225.722 110.442C226.067 110.143 226.24 109.705 226.24 109.126C226.24 108.557 226.067 108.123 225.722 107.824C225.386 107.525 224.863 107.376 224.154 107.376H221.844V110.876ZM229.968 116C229.865 116 229.786 115.972 229.73 115.916C229.674 115.851 229.646 115.771 229.646 115.678V106.536C229.646 106.433 229.674 106.354 229.73 106.298C229.786 106.233 229.865 106.2 229.968 106.2H235.75C235.852 106.2 235.932 106.233 235.988 106.298C236.044 106.354 236.072 106.433 236.072 106.536V107.068C236.072 107.171 236.044 107.25 235.988 107.306C235.932 107.362 235.852 107.39 235.75 107.39H230.99V110.456H235.442C235.544 110.456 235.624 110.489 235.68 110.554C235.736 110.61 235.764 110.689 235.764 110.792V111.31C235.764 111.403 235.736 111.483 235.68 111.548C235.624 111.604 235.544 111.632 235.442 111.632H230.99V114.81H235.862C235.964 114.81 236.044 114.838 236.1 114.894C236.156 114.95 236.184 115.029 236.184 115.132V115.678C236.184 115.771 236.156 115.851 236.1 115.916C236.044 115.972 235.964 116 235.862 116H229.968ZM238.206 111.1C238.113 111.1 238.033 111.072 237.968 111.016C237.912 110.951 237.884 110.871 237.884 110.778V109.798C237.884 109.705 237.912 109.63 237.968 109.574C238.033 109.509 238.113 109.476 238.206 109.476H239.2C239.303 109.476 239.382 109.509 239.438 109.574C239.503 109.63 239.536 109.705 239.536 109.798V110.778C239.536 110.871 239.503 110.951 239.438 111.016C239.382 111.072 239.303 111.1 239.2 111.1H238.206ZM238.206 116C238.113 116 238.033 115.972 237.968 115.916C237.912 115.851 237.884 115.771 237.884 115.678V114.698C237.884 114.605 237.912 114.53 237.968 114.474C238.033 114.409 238.113 114.376 238.206 114.376H239.2C239.303 114.376 239.382 114.409 239.438 114.474C239.503 114.53 239.536 114.605 239.536 114.698V115.678C239.536 115.771 239.503 115.851 239.438 115.916C239.382 115.972 239.303 116 239.2 116H238.206Z" fill="#303335"/>
<path d="M135 148C141.627 148 147 142.627 147 136C147 129.373 141.627 124 135 124C128.373 124 123 129.373 123 136C123 142.627 128.373 148 135 148Z" fill="#FE3D6A"/>
<path d="M135.049 140.12C134.481 140.12 133.997 140.036 133.597 139.868C133.197 139.7 132.869 139.468 132.613 139.172C132.357 138.876 132.165 138.536 132.037 138.152C131.909 137.76 131.833 137.344 131.809 136.904C131.801 136.688 131.793 136.452 131.785 136.196C131.785 135.932 131.785 135.668 131.785 135.404C131.793 135.14 131.801 134.896 131.809 134.672C131.825 134.232 131.901 133.82 132.037 133.436C132.173 133.044 132.369 132.704 132.625 132.416C132.889 132.128 133.221 131.9 133.621 131.732C134.021 131.564 134.497 131.48 135.049 131.48C135.609 131.48 136.089 131.564 136.489 131.732C136.889 131.9 137.217 132.128 137.473 132.416C137.737 132.704 137.933 133.044 138.061 133.436C138.197 133.82 138.273 134.232 138.289 134.672C138.305 134.896 138.313 135.14 138.313 135.404C138.313 135.668 138.313 135.932 138.313 136.196C138.313 136.452 138.305 136.688 138.289 136.904C138.273 137.344 138.201 137.76 138.073 138.152C137.945 138.536 137.753 138.876 137.497 139.172C137.241 139.468 136.909 139.7 136.501 139.868C136.101 140.036 135.617 140.12 135.049 140.12ZM135.049 138.74C135.569 138.74 135.949 138.572 136.189 138.236C136.437 137.892 136.565 137.428 136.573 136.844C136.589 136.612 136.597 136.38 136.597 136.148C136.597 135.908 136.597 135.668 136.597 135.428C136.597 135.188 136.589 134.96 136.573 134.744C136.565 134.176 136.437 133.72 136.189 133.376C135.949 133.024 135.569 132.848 135.049 132.848C134.537 132.848 134.157 133.024 133.909 133.376C133.669 133.72 133.541 134.176 133.525 134.744C133.525 134.96 133.521 135.188 133.513 135.428C133.513 135.668 133.513 135.908 133.513 136.148C133.521 136.38 133.525 136.612 133.525 136.844C133.541 137.428 133.673 137.892 133.921 138.236C134.169 138.572 134.545 138.74 135.049 138.74Z" fill="white"/>
<path d="M175 148C181.627 148 187 142.627 187 136C187 129.373 181.627 124 175 124C168.373 124 163 129.373 163 136C163 142.627 168.373 148 175 148Z" fill="#FFBB33"/>
<path d="M175.049 140.12C174.481 140.12 173.997 140.036 173.597 139.868C173.197 139.7 172.869 139.468 172.613 139.172C172.357 138.876 172.165 138.536 172.037 138.152C171.909 137.76 171.833 137.344 171.809 136.904C171.801 136.688 171.793 136.452 171.785 136.196C171.785 135.932 171.785 135.668 171.785 135.404C171.793 135.14 171.801 134.896 171.809 134.672C171.825 134.232 171.901 133.82 172.037 133.436C172.173 133.044 172.369 132.704 172.625 132.416C172.889 132.128 173.221 131.9 173.621 131.732C174.021 131.564 174.497 131.48 175.049 131.48C175.609 131.48 176.089 131.564 176.489 131.732C176.889 131.9 177.217 132.128 177.473 132.416C177.737 132.704 177.933 133.044 178.061 133.436C178.197 133.82 178.273 134.232 178.289 134.672C178.305 134.896 178.313 135.14 178.313 135.404C178.313 135.668 178.313 135.932 178.313 136.196C178.313 136.452 178.305 136.688 178.289 136.904C178.273 137.344 178.201 137.76 178.073 138.152C177.945 138.536 177.753 138.876 177.497 139.172C177.241 139.468 176.909 139.7 176.501 139.868C176.101 140.036 175.617 140.12 175.049 140.12ZM175.049 138.74C175.569 138.74 175.949 138.572 176.189 138.236C176.437 137.892 176.565 137.428 176.573 136.844C176.589 136.612 176.597 136.38 176.597 136.148C176.597 135.908 176.597 135.668 176.597 135.428C176.597 135.188 176.589 134.96 176.573 134.744C176.565 134.176 176.437 133.72 176.189 133.376C175.949 133.024 175.569 132.848 175.049 132.848C174.537 132.848 174.157 133.024 173.909 133.376C173.669 133.72 173.541 134.176 173.525 134.744C173.525 134.96 173.521 135.188 173.513 135.428C173.513 135.668 173.513 135.908 173.513 136.148C173.521 136.38 173.525 136.612 173.525 136.844C173.541 137.428 173.673 137.892 173.921 138.236C174.169 138.572 174.545 138.74 175.049 138.74Z" fill="white"/>
<path d="M215 148C221.627 148 227 142.627 227 136C227 129.373 221.627 124 215 124C208.373 124 203 129.373 203 136C203 142.627 208.373 148 215 148Z" fill="#3BA8E5"/>
<path d="M215.049 140.12C214.481 140.12 213.997 140.036 213.597 139.868C213.197 139.7 212.869 139.468 212.613 139.172C212.357 138.876 212.165 138.536 212.037 138.152C211.909 137.76 211.833 137.344 211.809 136.904C211.801 136.688 211.793 136.452 211.785 136.196C211.785 135.932 211.785 135.668 211.785 135.404C211.793 135.14 211.801 134.896 211.809 134.672C211.825 134.232 211.901 133.82 212.037 133.436C212.173 133.044 212.369 132.704 212.625 132.416C212.889 132.128 213.221 131.9 213.621 131.732C214.021 131.564 214.497 131.48 215.049 131.48C215.609 131.48 216.089 131.564 216.489 131.732C216.889 131.9 217.217 132.128 217.473 132.416C217.737 132.704 217.933 133.044 218.061 133.436C218.197 133.82 218.273 134.232 218.289 134.672C218.305 134.896 218.313 135.14 218.313 135.404C218.313 135.668 218.313 135.932 218.313 136.196C218.313 136.452 218.305 136.688 218.289 136.904C218.273 137.344 218.201 137.76 218.073 138.152C217.945 138.536 217.753 138.876 217.497 139.172C217.241 139.468 216.909 139.7 216.501 139.868C216.101 140.036 215.617 140.12 215.049 140.12ZM215.049 138.74C215.569 138.74 215.949 138.572 216.189 138.236C216.437 137.892 216.565 137.428 216.573 136.844C216.589 136.612 216.597 136.38 216.597 136.148C216.597 135.908 216.597 135.668 216.597 135.428C216.597 135.188 216.589 134.96 216.573 134.744C216.565 134.176 216.437 133.72 216.189 133.376C215.949 133.024 215.569 132.848 215.049 132.848C214.537 132.848 214.157 133.024 213.909 133.376C213.669 133.72 213.541 134.176 213.525 134.744C213.525 134.96 213.521 135.188 213.513 135.428C213.513 135.668 213.513 135.908 213.513 136.148C213.521 136.38 213.525 136.612 213.525 136.844C213.541 137.428 213.673 137.892 213.921 138.236C214.169 138.572 214.545 138.74 215.049 138.74Z" fill="white"/>
<path d="M255 148C261.627 148 267 142.627 267 136C267 129.373 261.627 124 255 124C248.373 124 243 129.373 243 136C243 142.627 248.373 148 255 148Z" fill="#38D279"/>
<path d="M255.049 140.12C254.481 140.12 253.997 140.036 253.597 139.868C253.197 139.7 252.869 139.468 252.613 139.172C252.357 138.876 252.165 138.536 252.037 138.152C251.909 137.76 251.833 137.344 251.809 136.904C251.801 136.688 251.793 136.452 251.785 136.196C251.785 135.932 251.785 135.668 251.785 135.404C251.793 135.14 251.801 134.896 251.809 134.672C251.825 134.232 251.901 133.82 252.037 133.436C252.173 133.044 252.369 132.704 252.625 132.416C252.889 132.128 253.221 131.9 253.621 131.732C254.021 131.564 254.497 131.48 255.049 131.48C255.609 131.48 256.089 131.564 256.489 131.732C256.889 131.9 257.217 132.128 257.473 132.416C257.737 132.704 257.933 133.044 258.061 133.436C258.197 133.82 258.273 134.232 258.289 134.672C258.305 134.896 258.313 135.14 258.313 135.404C258.313 135.668 258.313 135.932 258.313 136.196C258.313 136.452 258.305 136.688 258.289 136.904C258.273 137.344 258.201 137.76 258.073 138.152C257.945 138.536 257.753 138.876 257.497 139.172C257.241 139.468 256.909 139.7 256.501 139.868C256.101 140.036 255.617 140.12 255.049 140.12ZM255.049 138.74C255.569 138.74 255.949 138.572 256.189 138.236C256.437 137.892 256.565 137.428 256.573 136.844C256.589 136.612 256.597 136.38 256.597 136.148C256.597 135.908 256.597 135.668 256.597 135.428C256.597 135.188 256.589 134.96 256.573 134.744C256.565 134.176 256.437 133.72 256.189 133.376C255.949 133.024 255.569 132.848 255.049 132.848C254.537 132.848 254.157 133.024 253.909 133.376C253.669 133.72 253.541 134.176 253.525 134.744C253.525 134.96 253.521 135.188 253.513 135.428C253.513 135.668 253.513 135.908 253.513 136.148C253.521 136.38 253.525 136.612 253.525 136.844C253.541 137.428 253.673 137.892 253.921 138.236C254.169 138.572 254.545 138.74 255.049 138.74Z" fill="white"/>
<g clip-path="url(#clip2_125_5047)">
<path opacity="0.35" d="M351.5 19.9987C351.5 18.8021 352.47 17.832 353.667 17.832H370.333C371.53 17.832 372.5 18.8021 372.5 19.9987V25.9987C372.5 27.1953 371.53 28.1654 370.333 28.1654H353.667C352.47 28.1654 351.5 27.1953 351.5 25.9987V19.9987Z" stroke="#384955"/>
<path opacity="0.4" d="M374 20.998V24.998C374.805 24.6593 375.328 23.8712 375.328 22.998C375.328 22.1249 374.805 21.3368 374 20.998Z" fill="#384955"/>
<path d="M353 20.6654C353 19.929 353.597 19.332 354.333 19.332H369.667C370.403 19.332 371 19.929 371 20.6654V25.332C371 26.0684 370.403 26.6654 369.667 26.6654H354.333C353.597 26.6654 353 26.0684 353 25.332V20.6654Z" fill="#384955"/>
<path fill-rule="evenodd" clip-rule="evenodd" d="M338.33 19.6074C340.546 19.6075 342.678 20.4589 344.283 21.9857C344.404 22.1036 344.598 22.1021 344.717 21.9824L345.873 20.8157C345.933 20.755 345.967 20.6728 345.966 20.5872C345.966 20.5016 345.931 20.4198 345.87 20.3597C341.655 16.3202 335.005 16.3202 330.79 20.3597C330.729 20.4197 330.694 20.5015 330.694 20.5871C330.693 20.6727 330.727 20.755 330.787 20.8157L331.943 21.9824C332.062 22.1023 332.256 22.1038 332.377 21.9857C333.983 20.4588 336.114 19.6074 338.33 19.6074ZM338.33 23.4031C339.548 23.403 340.722 23.8555 341.624 24.6727C341.747 24.7887 341.939 24.7862 342.058 24.6671L343.212 23.5004C343.273 23.4392 343.307 23.3562 343.306 23.2699C343.305 23.1837 343.27 23.1014 343.208 23.0414C340.46 20.485 336.204 20.485 333.455 23.0414C333.393 23.1014 333.358 23.1837 333.357 23.27C333.356 23.3563 333.39 23.4393 333.451 23.5004L334.605 24.6671C334.724 24.7862 334.917 24.7887 335.039 24.6727C335.941 23.8561 337.114 23.4036 338.33 23.4031ZM340.643 25.9569C340.645 26.0434 340.611 26.1268 340.549 26.1874L338.552 28.2031C338.494 28.2623 338.414 28.2956 338.33 28.2956C338.247 28.2956 338.167 28.2623 338.109 28.2031L336.111 26.1874C336.049 26.1268 336.015 26.0433 336.017 25.9568C336.019 25.8703 336.057 25.7884 336.121 25.7304C337.396 24.6515 339.265 24.6515 340.54 25.7304C340.604 25.7884 340.642 25.8704 340.643 25.9569Z" fill="#384955"/>
<path fill-rule="evenodd" clip-rule="evenodd" d="M324.667 17.666H323.667C323.114 17.666 322.667 18.1137 322.667 18.666V27.3327C322.667 27.885 323.114 28.3327 323.667 28.3327H324.667C325.219 28.3327 325.667 27.885 325.667 27.3327V18.666C325.667 18.1137 325.219 17.666 324.667 17.666ZM319 19.9993H320C320.552 19.9993 321 20.4471 321 20.9993V27.3327C321 27.885 320.552 28.3327 320 28.3327H319C318.448 28.3327 318 27.885 318 27.3327V20.9993C318 20.4471 318.448 19.9993 319 19.9993ZM315.333 22.3327H314.333C313.781 22.3327 313.333 22.7804 313.333 23.3327V27.3327C313.333 27.885 313.781 28.3327 314.333 28.3327H315.333C315.886 28.3327 316.333 27.885 316.333 27.3327V23.3327C316.333 22.7804 315.886 22.3327 315.333 22.3327ZM310.667 24.3327H309.667C309.114 24.3327 308.667 24.7804 308.667 25.3327V27.3327C308.667 27.885 309.114 28.3327 309.667 28.3327H310.667C311.219 28.3327 311.667 27.885 311.667 27.3327V25.3327C311.667 24.7804 311.219 24.3327 310.667 24.3327Z" fill="#384955"/>
<path d="M37.3208 28.2568C40.0088 28.2568 41.6055 26.1548 41.6055 22.5952C41.6055 21.2549 41.3491 20.127 40.8584 19.2554C40.1479 17.9004 38.9248 17.168 37.3794 17.168C35.0796 17.168 33.4536 18.7134 33.4536 20.8813C33.4536 22.9175 34.9185 24.397 36.9326 24.397C38.1704 24.397 39.1738 23.8184 39.6719 22.8149H39.6938C39.6938 22.8149 39.7231 22.8149 39.7305 22.8149C39.7451 22.8149 39.7964 22.8149 39.7964 22.8149C39.7964 25.2319 38.8809 26.6748 37.3354 26.6748C36.4272 26.6748 35.7241 26.1768 35.4824 25.3784H33.6001C33.915 27.1143 35.3872 28.2568 37.3208 28.2568ZM37.3867 22.8955C36.1709 22.8955 35.3066 22.0312 35.3066 20.8228C35.3066 19.6436 36.2148 18.7427 37.394 18.7427C38.5732 18.7427 39.4814 19.6582 39.4814 20.8521C39.4814 22.0312 38.5952 22.8955 37.3867 22.8955Z" fill="#384955"/>
<path d="M44.6966 28.1543C45.3924 28.1543 45.8685 27.6562 45.8685 26.9971C45.8685 26.3306 45.3924 25.8398 44.6966 25.8398C44.0081 25.8398 43.5247 26.3306 43.5247 26.9971C43.5247 27.6562 44.0081 28.1543 44.6966 28.1543ZM44.6966 22.6611C45.3924 22.6611 45.8685 22.1704 45.8685 21.5112C45.8685 20.8447 45.3924 20.354 44.6966 20.354C44.0081 20.354 43.5247 20.8447 43.5247 21.5112C43.5247 22.1704 44.0081 22.6611 44.6966 22.6611Z" fill="#384955"/>
<path d="M52.7242 28.0005H54.5333V26.0303H55.9615V24.4336H54.5333V17.4316H51.8673C49.9996 20.2441 48.5128 22.5952 47.5606 24.3457V26.0303H52.7242V28.0005ZM49.3111 24.3677C50.5416 22.1997 51.6402 20.4639 52.651 18.9697H52.7535V24.4775H49.3111V24.3677Z" fill="#384955"/>
<path d="M59.9901 28.0005H61.8798V17.4316H59.9975L57.2362 19.3652V21.1816L59.8656 19.3359H59.9901V28.0005Z" fill="#384955"/>
</g>
<rect x="22" y="58" width="30" height="31" rx="4" fill="#668AA7"/>
<path d="M39 70L35 73.64L39 77" stroke="white" stroke-width="2" stroke-linecap="round" stroke-linejoin="round"/>
<path d="M69.4135 78.91C69.2735 78.91 69.1615 78.868 69.0775 78.784C69.0028 78.7093 68.9421 78.644 68.8955 78.588L68.3915 77.916C67.9901 78.0653 67.5328 78.14 67.0195 78.14C66.1701 78.14 65.4375 78 64.8215 77.72C64.2055 77.44 63.7248 77.02 63.3795 76.46C63.0435 75.8907 62.8568 75.1767 62.8195 74.318C62.8101 73.9167 62.8055 73.52 62.8055 73.128C62.8055 72.7267 62.8101 72.3207 62.8195 71.91C62.8568 71.07 63.0481 70.3653 63.3935 69.796C63.7481 69.2173 64.2335 68.7833 64.8495 68.494C65.4748 68.2047 66.1981 68.06 67.0195 68.06C67.8408 68.06 68.5595 68.2047 69.1755 68.494C69.8008 68.7833 70.2908 69.2173 70.6455 69.796C71.0001 70.3653 71.1915 71.07 71.2195 71.91C71.2381 72.3207 71.2475 72.7267 71.2475 73.128C71.2475 73.52 71.2381 73.9167 71.2195 74.318C71.1635 75.5127 70.8228 76.4227 70.1975 77.048L71.2055 78.476C71.2148 78.4853 71.2241 78.504 71.2335 78.532C71.2428 78.56 71.2475 78.588 71.2475 78.616C71.2568 78.6907 71.2335 78.756 71.1775 78.812C71.1215 78.8773 71.0515 78.91 70.9675 78.91H69.4135ZM67.0195 76.334C67.5701 76.334 68.0181 76.1707 68.3635 75.844C68.7088 75.508 68.8955 74.976 68.9235 74.248C68.9421 73.8373 68.9515 73.4547 68.9515 73.1C68.9515 72.736 68.9421 72.3533 68.9235 71.952C68.9048 71.4667 68.8115 71.07 68.6435 70.762C68.4848 70.454 68.2655 70.23 67.9855 70.09C67.7055 69.9407 67.3835 69.866 67.0195 69.866C66.6648 69.866 66.3475 69.9407 66.0675 70.09C65.7875 70.23 65.5635 70.454 65.3955 70.762C65.2275 71.07 65.1341 71.4667 65.1155 71.952C65.1061 72.3533 65.1015 72.736 65.1015 73.1C65.1015 73.4547 65.1061 73.8373 65.1155 74.248C65.1435 74.976 65.3301 75.508 65.6755 75.844C66.0301 76.1707 66.4781 76.334 67.0195 76.334ZM76.9892 78.14C76.1679 78.14 75.4492 78.0047 74.8332 77.734C74.2172 77.454 73.7412 77.0293 73.4052 76.46C73.0692 75.8813 72.9012 75.1487 72.9012 74.262V68.55C72.9012 68.4473 72.9339 68.3633 72.9992 68.298C73.0646 68.2327 73.1486 68.2 73.2512 68.2H74.7772C74.8799 68.2 74.9639 68.2327 75.0292 68.298C75.0946 68.3633 75.1272 68.4473 75.1272 68.55V74.248C75.1272 74.9387 75.2906 75.452 75.6172 75.788C75.9439 76.124 76.4012 76.292 76.9892 76.292C77.5679 76.292 78.0206 76.124 78.3472 75.788C78.6739 75.452 78.8372 74.9387 78.8372 74.248V68.55C78.8372 68.4473 78.8699 68.3633 78.9352 68.298C79.0099 68.2327 79.0939 68.2 79.1872 68.2H80.7272C80.8206 68.2 80.8999 68.2327 80.9652 68.298C81.0306 68.3633 81.0632 68.4473 81.0632 68.55V74.262C81.0632 75.1487 80.8952 75.8813 80.5592 76.46C80.2232 77.0293 79.7519 77.454 79.1452 77.734C78.5386 78.0047 77.8199 78.14 76.9892 78.14ZM83.3977 78C83.2951 78 83.2111 77.9673 83.1457 77.902C83.0804 77.8367 83.0477 77.7527 83.0477 77.65V68.55C83.0477 68.4473 83.0804 68.3633 83.1457 68.298C83.2111 68.2327 83.2951 68.2 83.3977 68.2H84.9797C85.0824 68.2 85.1664 68.2327 85.2317 68.298C85.2971 68.3633 85.3297 68.4473 85.3297 68.55V77.65C85.3297 77.7527 85.2971 77.8367 85.2317 77.902C85.1664 77.9673 85.0824 78 84.9797 78H83.3977ZM89.9014 78C89.7987 78 89.7147 77.9673 89.6494 77.902C89.584 77.8367 89.5514 77.7527 89.5514 77.65V70.146H87.0034C86.91 70.146 86.8307 70.1133 86.7654 70.048C86.7 69.9827 86.6674 69.9033 86.6674 69.81V68.55C86.6674 68.4473 86.7 68.3633 86.7654 68.298C86.8307 68.2327 86.91 68.2 87.0034 68.2H94.3394C94.442 68.2 94.526 68.2327 94.5914 68.298C94.6567 68.3633 94.6894 68.4473 94.6894 68.55V69.81C94.6894 69.9033 94.6567 69.9827 94.5914 70.048C94.526 70.1133 94.442 70.146 94.3394 70.146H91.8054V77.65C91.8054 77.7527 91.7727 77.8367 91.7074 77.902C91.642 77.9673 91.558 78 91.4554 78H89.9014Z" fill="#668AA7"/>
<rect x="310" y="58" width="60" height="30" rx="15" fill="#DAE7F1"/>
<path d="M320.88 76C320.821 76 320.776 75.984 320.744 75.952C320.712 75.9147 320.696 75.8693 320.696 75.816V70.584C320.696 70.5307 320.712 70.488 320.744 70.456C320.776 70.4187 320.821 70.4 320.88 70.4H321.304C321.357 70.4 321.4 70.4187 321.432 70.456C321.464 70.488 321.48 70.5307 321.48 70.584V75.304H324.144C324.203 75.304 324.248 75.3227 324.28 75.36C324.312 75.392 324.328 75.4373 324.328 75.496V75.816C324.328 75.8693 324.312 75.9147 324.28 75.952C324.248 75.984 324.203 76 324.144 76H320.88ZM325.284 76C325.23 76 325.185 75.984 325.148 75.952C325.116 75.9147 325.1 75.8693 325.1 75.816V72.024C325.1 71.9707 325.116 71.928 325.148 71.896C325.185 71.8587 325.23 71.84 325.284 71.84H325.668C325.721 71.84 325.764 71.8587 325.796 71.896C325.828 71.928 325.844 71.9707 325.844 72.024V75.816C325.844 75.8693 325.828 75.9147 325.796 75.952C325.764 75.984 325.721 76 325.668 76H325.284ZM325.22 71.064C325.166 71.064 325.121 71.048 325.084 71.016C325.052 70.9787 325.036 70.9333 325.036 70.88V70.448C325.036 70.3947 325.052 70.352 325.084 70.32C325.121 70.2827 325.166 70.264 325.22 70.264H325.724C325.777 70.264 325.82 70.2827 325.852 70.32C325.889 70.352 325.908 70.3947 325.908 70.448V70.88C325.908 70.9333 325.889 70.9787 325.852 71.016C325.82 71.048 325.777 71.064 325.724 71.064H325.22ZM328.741 77.76C328.379 77.76 328.08 77.712 327.845 77.616C327.616 77.52 327.435 77.4027 327.301 77.264C327.173 77.1307 327.08 76.9947 327.021 76.856C326.968 76.7227 326.939 76.616 326.933 76.536C326.928 76.4827 326.944 76.4373 326.981 76.4C327.024 76.3627 327.069 76.344 327.117 76.344H327.501C327.549 76.344 327.589 76.3547 327.621 76.376C327.653 76.3973 327.68 76.4427 327.701 76.512C327.733 76.592 327.781 76.68 327.845 76.776C327.909 76.8773 328.008 76.9627 328.141 77.032C328.275 77.1067 328.461 77.144 328.701 77.144C328.952 77.144 329.163 77.1093 329.333 77.04C329.504 76.976 329.632 76.8587 329.717 76.688C329.808 76.5227 329.853 76.2933 329.853 76V75.456C329.725 75.6213 329.557 75.76 329.349 75.872C329.141 75.9787 328.88 76.032 328.565 76.032C328.267 76.032 328.011 75.9813 327.797 75.88C327.584 75.7733 327.408 75.632 327.269 75.456C327.136 75.2747 327.035 75.0693 326.965 74.84C326.901 74.6107 326.864 74.3707 326.853 74.12C326.848 73.9707 326.848 73.824 326.853 73.68C326.864 73.4293 326.901 73.1893 326.965 72.96C327.035 72.7307 327.136 72.5253 327.269 72.344C327.408 72.1627 327.584 72.0213 327.797 71.92C328.011 71.8133 328.267 71.76 328.565 71.76C328.885 71.76 329.149 71.8213 329.357 71.944C329.571 72.0613 329.744 72.2053 329.877 72.376V72.032C329.877 71.9787 329.893 71.9333 329.925 71.896C329.963 71.8587 330.008 71.84 330.061 71.84H330.429C330.483 71.84 330.528 71.8587 330.565 71.896C330.603 71.9333 330.621 71.9787 330.621 72.032V75.912C330.621 76.2693 330.56 76.5867 330.437 76.864C330.32 77.1413 330.123 77.36 329.845 77.52C329.573 77.68 329.205 77.76 328.741 77.76ZM328.725 75.392C328.992 75.392 329.205 75.3307 329.365 75.208C329.531 75.0853 329.651 74.9307 329.725 74.744C329.805 74.5573 329.848 74.368 329.853 74.176C329.859 74.1013 329.861 74.0107 329.861 73.904C329.861 73.792 329.859 73.6987 329.853 73.624C329.848 73.432 329.805 73.2427 329.725 73.056C329.651 72.8693 329.531 72.7147 329.365 72.592C329.205 72.4693 328.992 72.408 328.725 72.408C328.459 72.408 328.245 72.4693 328.085 72.592C327.925 72.7093 327.811 72.8667 327.741 73.064C327.672 73.256 327.632 73.464 327.621 73.688C327.616 73.8267 327.616 73.968 327.621 74.112C327.632 74.336 327.672 74.5467 327.741 74.744C327.811 74.936 327.925 75.0933 328.085 75.216C328.245 75.3333 328.459 75.392 328.725 75.392ZM332.003 76C331.949 76 331.904 75.984 331.867 75.952C331.835 75.9147 331.819 75.8693 331.819 75.816V70.504C331.819 70.4507 331.835 70.408 331.867 70.376C331.904 70.3387 331.949 70.32 332.003 70.32H332.403C332.461 70.32 332.507 70.3387 332.539 70.376C332.571 70.408 332.587 70.4507 332.587 70.504V72.368C332.731 72.1867 332.907 72.04 333.115 71.928C333.323 71.816 333.587 71.76 333.907 71.76C334.253 71.76 334.547 71.8373 334.787 71.992C335.032 72.1413 335.216 72.352 335.339 72.624C335.467 72.8907 335.531 73.2027 335.531 73.56V75.816C335.531 75.8693 335.515 75.9147 335.483 75.952C335.451 75.984 335.405 76 335.347 76H334.947C334.893 76 334.848 75.984 334.811 75.952C334.779 75.9147 334.763 75.8693 334.763 75.816V73.6C334.763 73.2267 334.672 72.936 334.491 72.728C334.309 72.5147 334.043 72.408 333.691 72.408C333.36 72.408 333.093 72.5147 332.891 72.728C332.688 72.936 332.587 73.2267 332.587 73.6V75.816C332.587 75.8693 332.571 75.9147 332.539 75.952C332.507 75.984 332.461 76 332.403 76H332.003ZM338.255 76C337.956 76 337.714 75.944 337.527 75.832C337.34 75.7147 337.204 75.552 337.119 75.344C337.034 75.1307 336.991 74.88 336.991 74.592V72.48H336.367C336.314 72.48 336.268 72.464 336.231 72.432C336.199 72.3947 336.183 72.3493 336.183 72.296V72.024C336.183 71.9707 336.199 71.928 336.231 71.896C336.268 71.8587 336.314 71.84 336.367 71.84H336.991V70.504C336.991 70.4507 337.007 70.408 337.039 70.376C337.076 70.3387 337.122 70.32 337.175 70.32H337.551C337.604 70.32 337.647 70.3387 337.679 70.376C337.716 70.408 337.735 70.4507 337.735 70.504V71.84H338.727C338.78 71.84 338.823 71.8587 338.855 71.896C338.892 71.928 338.911 71.9707 338.911 72.024V72.296C338.911 72.3493 338.892 72.3947 338.855 72.432C338.823 72.464 338.78 72.48 338.727 72.48H337.735V74.536C337.735 74.7867 337.778 74.984 337.863 75.128C337.948 75.272 338.1 75.344 338.319 75.344H338.807C338.86 75.344 338.903 75.3627 338.935 75.4C338.972 75.432 338.991 75.4747 338.991 75.528V75.816C338.991 75.8693 338.972 75.9147 338.935 75.952C338.903 75.984 338.86 76 338.807 76H338.255Z" fill="#668AA7"/>
<circle cx="355" cy="73" r="13" fill="white" fill-opacity="0.7"/>
<g clip-path="url(#clip3_125_5047)">
<path d="M359.05 73.0005C359.05 75.4149 357.414 77.3722 355 77.3722C352.586 77.3722 350.628 75.4149 350.628 73.0005C350.628 70.5862 352.586 68.6289 355 68.6289C357.414 68.6289 359.05 70.5862 359.05 73.0005Z" fill="#FEE45A"/>
<path d="M355 68.6289C354.837 68.6289 354.676 68.6381 354.517 68.6556C356.704 68.896 358.406 70.7494 358.406 73.0005C358.406 75.2517 356.704 77.1051 354.517 77.3455C354.676 77.3629 354.837 77.3722 355 77.3722C357.414 77.3722 359.372 75.4149 359.372 73.0005C359.372 70.5862 357.414 68.6289 355 68.6289Z" fill="#FED402"/>
<path d="M355 67.5571H354.209C354.093 67.5571 354.012 67.4424 354.051 67.3333L354.486 66.1123L354.842 65.1115C354.895 64.9628 355.105 64.9628 355.158 65.1115L355.514 66.1123L355.948 67.3333C355.987 67.4424 355.906 67.5571 355.791 67.5571H355Z" fill="#FEE45A"/>
<path d="M355 78.4434H355.791C355.906 78.4434 355.987 78.5581 355.948 78.6672L355.514 79.8882L355.158 80.889C355.105 81.0376 354.895 81.0376 354.842 80.889L354.486 79.8882L354.051 78.6672C354.013 78.5581 354.093 78.4434 354.209 78.4434H355Z" fill="#FEE45A"/>
<path d="M360.443 72.9994V72.2088C360.443 72.0929 360.558 72.012 360.667 72.0509L361.888 72.4853L362.889 72.8415C363.037 72.8944 363.037 73.1045 362.889 73.1574L361.888 73.5135L360.667 73.948C360.558 73.9868 360.443 73.9059 360.443 73.79V72.9994Z" fill="#FED402"/>
<path d="M349.557 72.9994V73.79C349.557 73.9059 349.442 73.9868 349.333 73.948L348.112 73.5135L347.111 73.1574C346.963 73.1045 346.963 72.8943 347.111 72.8415L348.112 72.4853L349.333 72.0509C349.442 72.012 349.557 72.093 349.557 72.2088V72.9994Z" fill="#FEE45A"/>
<path d="M351.151 69.1509L350.592 69.7099C350.51 69.7919 350.372 69.768 350.322 69.6633L349.766 68.4928L349.31 67.5332C349.243 67.3908 349.391 67.2422 349.534 67.3098L350.493 67.7657L351.664 68.3218C351.768 68.3715 351.792 68.5099 351.71 68.5918L351.151 69.1509Z" fill="#FEE45A"/>
<path d="M358.849 76.8484L359.408 76.2894C359.49 76.2074 359.628 76.2313 359.678 76.336L360.234 77.5065L360.69 78.4661C360.757 78.6085 360.609 78.7571 360.466 78.6895L359.507 78.2336L358.336 77.6774C358.232 77.6277 358.208 77.4894 358.29 77.4075L358.849 76.8484Z" fill="#FED402"/>
<path d="M358.849 69.1508L358.29 68.5918C358.208 68.5099 358.232 68.3715 358.336 68.3218L359.507 67.7657L360.466 67.3098C360.609 67.2421 360.757 67.3907 360.69 67.5332L360.234 68.4928L359.678 69.6633C359.628 69.768 359.49 69.7918 359.408 69.7099L358.849 69.1508Z" fill="#FED402"/>
<path d="M351.151 76.8485L351.71 77.4075C351.792 77.4894 351.768 77.6278 351.664 77.6775L350.493 78.2336L349.534 78.6895C349.391 78.7572 349.243 78.6086 349.31 78.4661L349.766 77.5065L350.322 76.336C350.372 76.2313 350.51 76.2075 350.592 76.2894L351.151 76.8485Z" fill="#FEE45A"/>
</g>
</g>
<defs>
<linearGradient id="paint0_linear_125_5047" x1="195" y1="0" x2="195" y2="844" gradientUnits="userSpaceOnUse">
<stop stop-color="#CBE7FD"/>
<stop offset="1" stop-color="#EDF7FF"/>
</linearGradient>
<clipPath id="clip0_125_5047">
<rect width="390" height="844" fill="white"/>
</clipPath>
<clipPath id="clip1_125_5047">
<rect width="32" height="31" fill="white" transform="translate(201 219)"/>
</clipPath>
<clipPath id="clip2_125_5047">
<rect width="390" height="44" fill="white"/>
</clipPath>
<clipPath id="clip3_125_5047">
<rect width="16" height="16" fill="white" transform="translate(347 65)"/>
</clipPath>
</defs>
</svg>
